<svg width="260" height="263" viewBox="0 0 260 263" fill="none" xmlns="http://www.w3.org/2000/svg">
<path d="M260 50.3636L200.2 0.183594L183.43 20.0736L243.23 70.2536L260 50.3636ZM76.44 20.0736L59.8 0.183594L0 50.2336L16.77 70.1236L76.44 20.0736ZM130 28.0036C65.39 28.0036 13 80.3936 13 145.004C13 209.614 65.26 262.004 130 262.004C194.61 262.004 247 209.614 247 145.004C247 80.3936 194.61 28.0036 130 28.0036ZM130 236.004C79.69 236.004 39 195.314 39 145.004C39 94.6936 79.69 54.0036 130 54.0036C180.31 54.0036 221 94.6936 221 145.004C221 195.314 180.31 236.004 130 236.004ZM111.02 164.894L83.33 137.204L69.55 150.984L110.89 192.324L188.89 114.324L175.11 100.544L111.02 164.894V164.894Z" fill="#999999" fill-opacity="0.3"/>
</svg>
