<svg width="20" height="18" viewBox="0 0 20 18" fill="none" xmlns="http://www.w3.org/2000/svg">
<path d="M7.94048e-08 5.39995C-0.000122982 4.68232 0.142796 3.97186 0.420403 3.3101C0.69801 2.64833 1.10474 2.04854 1.61681 1.54578C2.12889 1.04301 2.73604 0.647358 3.40279 0.381939C4.06953 0.11652 4.78249 -0.01334 5.5 -5.04893e-05C6.34896 -0.00455898 7.18919 0.171419 7.96499 0.51622C8.74079 0.861021 9.43445 1.36677 10 1.99995C10.5655 1.36677 11.2592 0.861021 12.035 0.51622C12.8108 0.171419 13.651 -0.00455898 14.5 -5.04893e-05C15.2175 -0.01334 15.9305 0.11652 16.5972 0.381939C17.264 0.647358 17.8711 1.04301 18.3832 1.54578C18.8953 2.04854 19.302 2.64833 19.5796 3.3101C19.8572 3.97186 20.0001 4.68232 20 5.39995C20 10.7559 13.621 14.8 10 18C6.387 14.773 7.94048e-08 10.7599 7.94048e-08 5.39995Z" fill="#B08F76"/>
</svg>
