<svg width="25" height="26" viewBox="0 0 25 26" fill="none" xmlns="http://www.w3.org/2000/svg">
<g clip-path="url(#clip0_1237_43276)">
<path d="M12.3444 25.002C19.3222 25.002 25 20.286 25 14.4872C25 8.72923 16.0139 0.00195336 12.3444 0.00195336C8.85833 0.00195336 2.38419e-07 8.88718 2.38419e-07 14.4872C2.38419e-07 20.286 5.5375 25.002 12.3444 25.002Z" fill="#0E0D0D"/>
<path fill-rule="evenodd" clip-rule="evenodd" d="M11.5977 13.119C11.6365 12.3664 11.6754 11.6534 11.7532 11.1782C11.9478 9.63356 12.3756 9.11868 12.7646 8.76211C13.3483 8.24723 14.0096 7.97004 14.8264 7.97004C16.6159 7.97004 18.2497 9.31668 17.9385 10.7822C17.8997 10.9802 17.8218 11.0991 17.8218 11.1782C18.0554 9.99013 17.0827 8.60371 15.5268 8.60371C14.243 8.60371 12.8814 8.99979 12.8814 10.8615C12.8814 11.7328 13.3871 12.9605 15.5268 12.8813C16.3826 12.8416 18.2498 12.5248 18.2498 10.6633C18.2498 8.99979 16.9271 7.53418 12.9982 7.53418C8.68017 7.53418 6.15158 9.67316 5.95703 13.1189C5.95703 13.2377 5.95703 13.3962 5.95703 13.5545C5.95703 15.1389 6.424 16.4856 7.2798 17.5155C7.30795 17.5488 7.33688 17.5819 7.36598 17.6146C7.68266 17.971 8.05028 18.2886 8.46674 18.5631C9.64503 19.3401 11.2171 19.7731 13.1537 19.7731C15.8769 19.7731 17.1605 18.5453 17.7441 17.5155C18.0164 17.0402 18.1331 16.6044 18.2109 16.3668C18.3276 15.6538 17.9776 15.6935 17.9386 16.2084C17.8998 16.6836 17.7052 17.1193 17.4718 17.5155C16.8104 18.5849 15.4879 19.4166 14.1652 19.4166C13.8035 19.3905 13.5964 19.3812 13.327 19.2624C13.1908 19.2021 13.0384 19.114 12.8427 18.9808C12.5314 18.7828 12.2202 18.268 11.9869 17.5154C11.9089 17.3569 11.87 17.1587 11.8312 16.9608C11.6365 16.0105 11.5588 14.4657 11.5977 13.119Z" fill="white"/>
</g>
<defs>
<clipPath id="clip0_1237_43276">
<rect width="25" height="25.0017" fill="white" transform="translate(25 25.002) rotate(-180)"/>
</clipPath>
</defs>
</svg>
