<svg width="15" height="16" viewBox="0 0 15 16" fill="none" xmlns="http://www.w3.org/2000/svg">
<path fill-rule="evenodd" clip-rule="evenodd" d="M13.3461 5.54075C13.6731 5.56625 13.9169 5.837 13.8908 6.14675C13.8861 6.19775 13.457 11.231 13.21 13.3423C13.0564 14.6525 12.1428 15.4498 10.7637 15.4738C9.70843 15.491 8.69035 15.5008 7.69522 15.5008C6.62252 15.5008 5.57672 15.4895 4.54202 15.4693C3.21835 15.4445 2.30239 14.6315 2.15277 13.3475C1.90339 11.2175 1.47668 6.197 1.47272 6.14675C1.44581 5.837 1.68964 5.5655 2.0166 5.54075C2.33881 5.5325 2.63014 5.747 2.65627 6.056C2.65879 6.08856 2.83324 8.13878 3.02333 10.1673L3.06151 10.5721C3.15726 11.5804 3.25431 12.5492 3.33314 13.2238C3.41785 13.9535 3.83347 14.33 4.56656 14.3443C6.54572 14.384 8.56527 14.3863 10.7423 14.3488C11.5213 14.3345 11.9425 13.9655 12.0296 13.2185C12.275 11.123 12.7025 6.107 12.7073 6.056C12.7334 5.747 13.0223 5.531 13.3461 5.54075ZM9.35677 0.500977C10.0835 0.500977 10.7224 0.965227 10.91 1.63048L11.1111 2.57623C11.1761 2.88626 11.4633 3.11267 11.7958 3.11764L14.3938 3.11773C14.7216 3.11773 14.9876 3.36973 14.9876 3.68023C14.9876 3.99073 14.7216 4.24273 14.3938 4.24273L11.819 4.24261C11.815 4.24269 11.811 4.24273 11.807 4.24273L11.7877 4.24198L3.57461 4.24264C3.56823 4.2427 3.56184 4.24273 3.55544 4.24273L3.54325 4.24198L0.96875 4.24273C0.641 4.24273 0.375 3.99073 0.375 3.68023C0.375 3.36973 0.641 3.11773 0.96875 3.11773L3.56621 3.11698L3.64618 3.11218C3.94408 3.07557 4.19165 2.86123 4.25211 2.57623L4.44448 1.66423C4.64002 0.965227 5.2789 0.500977 6.00565 0.500977H9.35677ZM9.35677 1.62598H6.00565C5.81565 1.62598 5.64861 1.74673 5.60032 1.91998L5.41586 2.79748C5.39241 2.90862 5.35828 3.01574 5.31459 3.11793H10.0481C10.0043 3.01574 9.97011 2.90862 9.94657 2.79748L9.75419 1.88548C9.71382 1.74673 9.54677 1.62598 9.35677 1.62598Z" fill="black"/>
</svg>
