<svg width="260" height="236" viewBox="0 0 260 236" fill="none" xmlns="http://www.w3.org/2000/svg">
<path d="M130 235C121.615 227.564 112.138 219.829 102.115 211.6H101.985C66.6903 182.74 26.6893 150.084 9.0223 110.954C3.21802 98.4964 0.142048 84.9426 0.000148278 71.2C-0.038615 52.3433 7.52432 34.2668 20.9798 21.0559C34.4353 7.8451 52.6475 0.615096 71.5003 0.999967C86.8485 1.02421 101.866 5.46002 114.764 13.779C120.432 17.4576 125.56 21.9073 130 27C134.466 21.9273 139.595 17.4802 145.249 13.779C158.142 5.45838 173.156 1.02231 188.5 0.999967C207.353 0.615096 225.565 7.8451 239.021 21.0559C252.476 34.2668 260.039 52.3433 260 71.2C259.868 84.9646 256.792 98.5415 250.978 111.019C233.311 150.149 193.323 182.792 158.028 211.6L157.898 211.704C147.862 219.881 138.398 227.616 130.013 235.104L130 235ZM71.5003 27C59.3909 26.8484 47.7112 31.4829 39.0003 39.896C30.6073 48.1401 25.9165 59.4356 25.9992 71.2C26.1475 81.2165 28.4161 91.088 32.6563 100.164C40.9959 117.047 52.2487 132.327 65.8973 145.3C78.7803 158.3 93.6003 170.884 106.418 181.466C109.967 184.391 113.581 187.342 117.195 190.293L119.47 192.152C122.941 194.986 126.529 197.924 130 200.81L130.169 200.654L130.247 200.589H130.325L130.442 200.498H130.507H130.572L130.806 200.303L131.339 199.874L131.43 199.796L131.573 199.692H131.651L131.768 199.588L140.4 192.503L142.662 190.644C146.315 187.667 149.929 184.716 153.478 181.791C166.296 171.209 181.129 158.638 194.012 145.573C207.663 132.606 218.916 117.331 227.253 100.45C231.57 91.2954 233.871 81.3205 234.001 71.2C234.054 59.4719 229.366 48.2198 221 40C212.306 31.5489 200.624 26.8762 188.5 27C173.705 26.8742 159.561 33.0758 149.63 44.043L130 66.663L110.37 44.043C100.439 33.0758 86.2953 26.8742 71.5003 27Z" fill="#838383" fill-opacity="0.3"/>
</svg>
