<svg width="49" height="43" viewBox="0 0 49 43" fill="none" xmlns="http://www.w3.org/2000/svg">
<path d="M28.292 0.875C16.9024 0.875 7.66699 10.1104 7.66699 21.5H0.791992L9.70658 30.4146L9.86699 30.7354L19.1253 21.5H12.2503C12.2503 12.6313 19.4232 5.45833 28.292 5.45833C37.1607 5.45833 44.3337 12.6313 44.3337 21.5C44.3337 30.3688 37.1607 37.5417 28.292 37.5417C23.8691 37.5417 19.8587 35.7313 16.9712 32.8208L13.717 36.075C17.4524 39.8104 22.5857 42.125 28.292 42.125C39.6816 42.125 48.917 32.8896 48.917 21.5C48.917 10.1104 39.6816 0.875 28.292 0.875ZM26.0003 12.3333V23.7917L35.8087 29.6125L37.4587 26.8396L29.4378 22.0729V12.3333H26.0003Z" fill="#95CC49"/>
</svg>
