<svg width="42" height="49" viewBox="0 0 42 49" fill="none" xmlns="http://www.w3.org/2000/svg">
<path d="M37.0417 11.7503H32.4583C32.4583 5.42533 27.325 0.291992 21 0.291992C14.675 0.291992 9.54167 5.42533 9.54167 11.7503H4.95833C2.4375 11.7503 0.397917 13.8128 0.397917 16.3337L0.375 43.8337C0.375 46.3545 2.4375 48.417 4.95833 48.417H37.0417C39.5625 48.417 41.625 46.3545 41.625 43.8337V16.3337C41.625 13.8128 39.5625 11.7503 37.0417 11.7503ZM21 4.87533C24.8042 4.87533 27.875 7.94616 27.875 11.7503H14.125C14.125 7.94616 17.1958 4.87533 21 4.87533ZM21 27.792C14.675 27.792 9.54167 22.6587 9.54167 16.3337H14.125C14.125 20.1378 17.1958 23.2087 21 23.2087C24.8042 23.2087 27.875 20.1378 27.875 16.3337H32.4583C32.4583 22.6587 27.325 27.792 21 27.792Z" fill="#95CC49"/>
</svg>
