<svg width="168" height="186" viewBox="0 0 168 186" fill="none" xmlns="http://www.w3.org/2000/svg">
<rect width="168" height="186" fill="#0047FF"/>
<path d="M99.1217 121.427H96.6031V113.66H94.8201V121.427H92.2792V103.767H94.8201V111.31H96.6031V103.767H99.1217V121.427Z" fill="white"/>
<path d="M107.448 121.427H104.774L104.372 114.891H102.879L102.5 121.427H99.7811L101.252 104.684C101.297 104.072 101.594 103.767 102.144 103.767H105.019C105.583 103.767 105.903 104.072 105.977 104.684L107.448 121.427ZM103.57 106.206C103.451 106.206 103.392 106.259 103.392 106.363L103.013 112.541H104.239L103.882 106.363C103.882 106.259 103.823 106.206 103.704 106.206H103.57Z" fill="white"/>
<path d="M113.685 121.427H111.323V118.606H109.83C108.388 118.606 107.668 117.651 107.668 115.741V109.474C107.668 107.564 108.388 106.609 109.83 106.609H111.323V103.767H113.685V106.609H115.179C116.635 106.609 117.363 107.564 117.363 109.474V115.741C117.363 117.651 116.635 118.606 115.179 118.606H113.685V121.427ZM114.532 116.278C114.919 116.278 115.112 116.002 115.112 115.45V109.788C115.112 109.221 114.919 108.937 114.532 108.937H113.685V116.278H114.532ZM111.323 116.278V108.937H110.476C110.104 108.937 109.919 109.221 109.919 109.788V115.45C109.919 116.002 110.104 116.278 110.476 116.278H111.323Z" fill="white"/>
<path d="M121.523 121.427H118.937V106.206H117.021V103.767H123.44V106.206H121.523V121.427Z" fill="white"/>
<path d="M130.52 121.427H127.845L127.444 114.891H125.951L125.572 121.427H122.853L124.324 104.684C124.368 104.072 124.666 103.767 125.215 103.767H128.09C128.655 103.767 128.975 104.072 129.049 104.684L130.52 121.427ZM126.642 106.206C126.523 106.206 126.463 106.259 126.463 106.363L126.085 112.541H127.31L126.954 106.363C126.954 106.259 126.894 106.206 126.775 106.206H126.642Z" fill="white"/>
<path d="M96.514 141.478H93.9286V126.257H92.0118V123.818H98.4308V126.257H96.514V141.478Z" fill="white"/>
<path d="M101.676 141.478H99.1354V124.847C99.1354 124.161 99.4698 123.818 100.138 123.818H103.682C105.138 123.818 105.866 124.78 105.866 126.705V131.786C105.866 133.696 105.138 134.651 103.682 134.651H101.676V141.478ZM102.88 132.323C103.251 132.323 103.437 132.047 103.437 131.495V127.086C103.437 126.533 103.251 126.257 102.88 126.257H101.899C101.751 126.257 101.676 126.339 101.676 126.504V132.323H102.88Z" fill="white"/>
<path d="M113.39 141.478H110.716L110.314 134.942H108.821L108.442 141.478H105.723L107.194 124.735C107.239 124.124 107.536 123.818 108.086 123.818H110.961C111.525 123.818 111.845 124.124 111.919 124.735L113.39 141.478ZM109.512 126.257C109.393 126.257 109.334 126.31 109.334 126.414L108.955 132.592H110.181L109.824 126.414C109.824 126.31 109.765 126.257 109.646 126.257H109.512Z" fill="white"/>
<path d="M120.931 141.478H118.412V133.711H116.629V141.478H114.088V123.818H116.629V131.361H118.412V123.818H120.931V141.478Z" fill="white"/>
<path d="M127.363 141.478H124.042C122.616 141.478 121.902 140.523 121.902 138.613V126.705C121.902 124.78 122.616 123.818 124.042 123.818H127.363V126.257H125.023C124.636 126.257 124.443 126.533 124.443 127.086V138.232C124.443 138.784 124.636 139.06 125.023 139.06H127.363V141.478Z" fill="white"/>
<path d="M99.1663 161.529H96.6254V146.555C96.6254 146.376 96.5511 146.286 96.4025 146.286H95.043C94.8944 146.286 94.8201 146.376 94.8201 146.555V161.529H92.2792V144.898C92.2792 144.212 92.6136 143.869 93.2822 143.869H98.1633C98.8319 143.869 99.1663 144.212 99.1663 144.898V161.529Z" fill="white"/>
<path d="M107.448 161.529H104.774L103.882 146.465C103.882 146.361 103.823 146.309 103.704 146.309H103.57C103.451 146.309 103.392 146.361 103.392 146.465L102.5 161.529H99.7811L101.252 144.787C101.297 144.175 101.594 143.869 102.144 143.869H105.019C105.613 143.869 105.933 144.175 105.977 144.787L107.448 161.529Z" fill="white"/>
<path d="M118.332 158.664C118.332 160.574 117.604 161.529 116.148 161.529H113.741C112.299 161.529 111.579 160.574 111.579 158.664V153.762H110.598V161.529H108.146V143.869H110.598V151.412H111.579V146.756C111.579 144.831 112.299 143.869 113.741 143.869H116.148C117.604 143.869 118.332 144.831 118.332 146.756V158.664ZM115.234 159.111C115.62 159.111 115.814 158.835 115.814 158.283V147.137C115.814 146.585 115.62 146.309 115.234 146.309H114.61C114.239 146.309 114.053 146.585 114.053 147.137V158.283C114.053 158.835 114.239 159.111 114.61 159.111H115.234Z" fill="white"/>
<path d="M124.751 161.529H121.43C120.004 161.529 119.29 160.574 119.29 158.664V146.756C119.29 144.831 120.004 143.869 121.43 143.869H124.751V146.309H122.411C122.024 146.309 121.831 146.585 121.831 147.137V158.283C121.831 158.835 122.024 159.111 122.411 159.111H124.751V161.529Z" fill="white"/>
<path fill-rule="evenodd" clip-rule="evenodd" d="M65.2729 84.8291C67.2203 85.83 67.3349 89.8872 65.2452 93.919C63.1555 97.9508 59.7781 100.052 57.9759 98.663C56.1737 97.2738 56.4865 93.2335 58.4308 89.602C60.375 85.9705 63.3255 83.8284 65.2729 84.8291ZM62.5941 78.814C62.5135 81.7697 60.292 85.9225 57.7743 87.7234C55.2565 89.5243 53.5313 88.2966 53.7796 85.3216C54.0279 82.3467 56.0259 78.7563 58.3757 76.9696C60.7255 75.183 62.675 75.8582 62.5941 78.814ZM41.9144 94.1599C41.609 96.1329 40.2079 98.6474 38.8533 99.6323C37.4986 100.617 36.7298 99.7011 37.0875 97.735C37.4451 95.7689 38.7584 93.4831 40.0609 92.4911C41.3633 91.4991 42.2199 92.1869 41.9144 94.1599ZM51.0075 87.3816C50.7614 89.8611 48.9671 93.1378 47.0922 94.493C45.2173 95.8482 44.0687 94.7642 44.4198 92.2866C44.7708 89.8089 46.4178 86.8927 48.1878 85.5362C49.9578 84.1797 51.2537 84.9021 51.0075 87.3816ZM65.3722 69.6521C63.6041 72.8635 60.7611 75.0099 59.2096 74.4021C57.658 73.7944 57.895 70.8824 59.5551 67.9277C61.2152 64.973 63.7593 62.8912 65.4152 63.2467C67.0711 63.6022 67.1404 66.4404 65.3722 69.6521ZM52.3353 65.8456C51.3212 67.6077 49.8426 68.8522 49.1031 68.5992C48.3636 68.3462 48.6074 66.7541 49.5883 65.0694C50.5693 63.3848 51.95 62.1838 52.7267 62.3596C53.5034 62.5354 53.3495 64.0832 52.3353 65.8456ZM57.7998 67.4132C56.4425 69.816 54.3937 71.4772 53.3234 71.0858C52.2531 70.6944 52.5087 68.5217 53.8041 66.2636C55.0995 64.0055 56.9897 62.4086 58.1256 62.6555C59.2615 62.9025 59.1571 65.0104 57.7998 67.4132ZM71.7953 61.9611C69.2177 63.9557 67.2066 63.4457 67.1836 61.1077C67.1607 58.7697 69.0098 55.5061 71.4152 53.5503C73.8207 51.5945 76.015 51.663 76.2064 53.9575C76.3977 56.252 74.3728 59.9662 71.7953 61.9611ZM70.9364 42.9397C69.4918 44.185 68.3275 44.2071 68.3082 43.0622C68.289 41.9173 69.3635 40.048 70.7479 38.8303C72.1324 37.6127 73.3613 37.4562 73.4407 38.5773C73.52 39.6985 72.3809 41.6944 70.9364 42.9397ZM71.2969 51.0089C69.3379 52.6205 67.7996 52.4729 67.7809 50.8289C67.7621 49.1848 69.1866 46.7098 71.0368 45.1298C72.8869 43.5498 74.5299 43.4483 74.6609 45.0565C74.7919 46.6647 73.2559 49.3972 71.2969 51.0089ZM78.8899 59.3999C76.6966 59.0673 76.5142 56.2454 78.2265 53.1318C79.9388 50.0182 82.9794 47.598 85.2805 47.6412C87.5816 47.6844 88.2004 50.4067 86.3801 53.8052C84.5597 57.2037 81.0832 59.7325 78.8899 59.3999ZM94.3876 31.0629C92.7631 31.2811 92.4007 29.9043 93.4493 28.0233C94.498 26.1424 96.603 24.371 98.2692 24.0484C99.9354 23.7259 100.5 25.0476 99.4135 27.0269C98.3274 29.0061 96.0121 30.8447 94.3876 31.0629ZM87.3592 43.8328C85.4115 43.8729 85.1021 41.8702 86.4618 39.4144C87.8214 36.9586 90.4043 34.8597 92.4123 34.6454C94.4203 34.4311 95.0568 36.3279 93.6286 38.9576C92.2004 41.5874 89.3066 43.7928 87.3592 43.8328ZM82.8724 64.1193C82.4742 61.2131 84.5716 57.3228 87.6828 55.0381C90.794 52.7533 93.9844 52.8935 94.6815 55.757C95.3786 58.6206 93.0635 63.1892 89.6494 65.5148C86.2354 67.8404 83.2704 67.0255 82.8724 64.1193ZM114.971 41.5536C114.103 39.7288 115.55 36.8545 118.251 34.9311C120.952 33.0077 124.077 32.6951 125.173 34.4614C126.268 36.2278 124.743 39.4847 121.814 41.4672C118.884 43.4496 115.838 43.3785 114.971 41.5536ZM98.8946 52.7892C98.217 50.4177 99.9989 47.0108 102.969 44.8665C105.939 42.7222 109.188 42.5984 110.161 44.9147C111.133 47.2311 109.207 51.1462 105.942 53.3516C102.677 55.557 99.5722 55.1606 98.8946 52.7892ZM80.4962 74.4013C82.5077 70.516 86.1579 67.9538 89.018 68.6482C91.878 69.3427 92.7865 73.408 90.6314 77.7506C88.4764 82.0931 84.191 84.6715 81.474 83.5145C78.757 82.3575 78.4845 78.2864 80.4962 74.4013ZM94.5312 79.0812C96.3732 75.3079 100.122 72.9747 103.278 73.8534C106.434 74.7321 107.743 78.8359 105.79 83.0467C103.838 87.2574 99.4515 89.5762 96.4061 88.2613C93.3608 86.9465 92.689 82.8545 94.5312 79.0812ZM72.7826 83.4025C75.8342 81.3694 78.7115 82.4284 79.057 86.3036C79.4025 90.1789 76.8139 95.4007 73.4617 97.4216C70.1096 99.4426 67.5078 97.526 67.4664 93.6736C67.4251 89.8213 69.7309 85.4355 72.7826 83.4025ZM74.7869 124.67C77.4142 123.44 79.9109 125.598 80.2356 129.883C80.5603 134.168 78.396 138.946 75.5425 140.075C72.689 141.203 70.4003 138.376 70.2986 134.186C70.1968 129.995 72.1598 125.9 74.7869 124.67ZM73.7113 102.748C76.5985 101.08 79.3308 102.728 79.6834 106.932C80.0361 111.135 77.6282 116.228 74.4524 117.818C71.2766 119.409 68.7961 116.964 68.7323 112.837C68.6685 108.711 70.8241 104.416 73.7113 102.748ZM46.3561 121.027C47.3929 122.406 47.088 126.027 45.5401 129.08C43.9923 132.132 41.8733 133.23 40.9187 131.623C39.9641 130.016 40.4604 126.498 41.9255 123.674C43.3906 120.85 45.3193 119.648 46.3561 121.027ZM55.4632 103.46C56.9219 104.742 56.7743 108.725 54.935 112.314C53.0957 115.903 50.3616 117.467 49.0132 115.874C47.6649 114.282 48.1143 110.391 49.84 107.119C51.5657 103.846 54.0044 102.179 55.4632 103.46Z" fill="white"/>
<path fill-rule="evenodd" clip-rule="evenodd" d="M127.122 88.2414C127.122 92.2384 123.663 96.12 119.398 96.12C115.132 96.12 111.673 92.5073 111.673 88.2414C111.673 84.5132 117.029 75.6404 119.398 72.2827C121.766 75.6404 127.122 84.2443 127.122 88.2414Z" fill="#EB0139"/>
</svg>
