<svg width="23" height="26" viewBox="0 0 23 26" fill="none" xmlns="http://www.w3.org/2000/svg">
<path fill-rule="evenodd" clip-rule="evenodd" d="M5.97837 0.0753964C5.30362 0.238339 4.63977 0.795829 4.34669 1.44572C4.20206 1.76654 4.19989 1.82937 4.16642 6.76903L4.13255 11.7677L2.50663 11.8024C0.950486 11.8357 0.869799 11.8441 0.626047 11.9994C0.486015 12.0886 0.287855 12.3073 0.185693 12.4853L0 12.8091V17.1829C0 19.5885 0.0233049 21.6421 0.0517585 21.7464C0.127228 22.0225 0.499632 22.4272 0.81235 22.5728C1.04919 22.683 1.28109 22.6994 2.62518 22.7007L4.16642 22.7023V23.3939C4.16642 23.9329 4.19874 24.1742 4.31296 24.4869C4.51145 25.0306 5.07009 25.6042 5.62345 25.8325L6.02945 26H13.5493C20.7647 26 21.0829 25.9947 21.408 25.8685C22.1561 25.578 22.7214 24.9528 22.9102 24.2069C22.9824 23.9219 23 22.2003 23 15.4502V7.04826L19.5611 3.52413L16.1222 0L11.1775 0.00694248C8.45783 0.0108303 6.11827 0.041586 5.97837 0.0753964ZM15.4939 3.45394C15.5132 5.83448 15.52 5.94931 15.6616 6.2634C15.8818 6.75181 16.3628 7.23959 16.8531 7.47162L17.2754 7.67156L19.6635 7.69225L22.0515 7.71287V15.7029C22.0515 21.8238 22.032 23.7597 21.9682 23.9786C21.8607 24.3475 21.4213 24.7978 21.0614 24.9079C20.6911 25.0213 6.50578 25.0317 6.10933 24.9189C5.79397 24.8291 5.33017 24.414 5.20613 24.1104C5.15247 23.9789 5.11487 23.6288 5.11487 23.2599V22.6328H10.2253C13.6642 22.6328 15.3982 22.6088 15.5265 22.5592C15.7852 22.4592 16.1533 22.0916 16.2673 21.8193C16.3435 21.6371 16.3608 20.7819 16.3608 17.1817C16.3608 13.2497 16.3488 12.7432 16.251 12.5453C16.0945 12.2285 15.9582 12.0861 15.6495 11.9165C15.3803 11.7687 15.3457 11.7676 10.2453 11.7483L5.11223 11.7288L5.13046 6.80763L5.14875 1.88637L5.35199 1.59069C5.46377 1.42809 5.68957 1.22231 5.85379 1.13352L6.15242 0.971963H10.813H15.4737L15.4939 3.45394ZM19.4945 6.72036C18.2763 6.73424 17.593 6.71494 17.4109 6.66149C17.0387 6.55221 16.7271 6.2954 16.5465 5.94924C16.4009 5.67001 16.3939 5.57677 16.3744 3.64486L16.3543 1.63151L18.8307 4.16555L21.3071 6.6996L19.4945 6.72036ZM15.3138 12.8754L15.4801 13.0458V17.2176V21.3895L15.3129 21.5608L15.1457 21.7323L8.15961 21.7139L1.17358 21.6956L1.04404 21.5317C0.919797 21.3744 0.91458 21.2007 0.91458 17.24C0.91458 14.4522 0.938021 13.0675 0.986731 12.9742C1.02643 12.8982 1.12554 12.8085 1.20691 12.7749C1.28854 12.7412 4.44825 12.7117 8.25121 12.7093L15.1475 12.7049L15.3138 12.8754ZM2.40501 17.2176V19.231H2.81149H3.21797V18.5714V17.9119H3.78148C4.09149 17.9119 4.49621 17.8659 4.68102 17.8096C5.9113 17.4352 5.88841 15.7091 4.64749 15.2833C4.51654 15.2384 3.98317 15.2043 3.41111 15.2043H2.40501V17.2176ZM6.41798 17.2003L6.43594 19.1963L7.45214 19.1922C8.4119 19.1882 8.4909 19.1774 8.87482 18.9974C9.64062 18.6384 9.99331 18.1326 10.0452 17.319C10.0862 16.6759 9.90714 16.2282 9.43495 15.7931C8.93951 15.3366 8.46156 15.2043 7.30844 15.2043H6.39996L6.41798 17.2003ZM11.0088 17.2176V19.231H11.4492H11.8895V18.4326V17.6342H12.838H13.7865V17.2523V16.8705H12.838H11.8895V16.4192V15.968H12.9735H14.0574V15.5861V15.2043H12.5331H11.0088V17.2176ZM4.40333 16.0675C4.77485 16.2266 4.82228 16.7092 4.49113 16.9616C4.35496 17.0654 4.16757 17.1097 3.76285 17.1337L3.21797 17.166V16.567V15.968H3.69436C3.95641 15.968 4.27542 16.0127 4.40333 16.0675ZM8.55302 16.1152C9.39979 16.5353 9.45574 17.7795 8.64874 18.2443C8.43453 18.3677 8.27417 18.3979 7.83247 18.3979H7.28277V17.1829V15.968H7.76946C8.12703 15.968 8.33501 16.007 8.55302 16.1152Z" fill="white"/>
</svg>
