<svg width="101" height="101" viewBox="0 0 101 101" fill="none" xmlns="http://www.w3.org/2000/svg">
<path d="M5.57116 0.841797H0.841797V5.57116H5.57116V0.841797Z" fill="black"/>
<path d="M10.3005 0.841797H5.57116V5.57116H10.3005V0.841797Z" fill="black"/>
<path d="M15.0299 0.841797H10.3005V5.57116H15.0299V0.841797Z" fill="black"/>
<path d="M19.7593 0.841797H15.0299V5.57116H19.7593V0.841797Z" fill="black"/>
<path d="M24.4886 0.841797H19.7593V5.57116H24.4886V0.841797Z" fill="black"/>
<path d="M29.218 0.841797H24.4886V5.57116H29.218V0.841797Z" fill="black"/>
<path d="M33.9474 0.841797H29.218V5.57116H33.9474V0.841797Z" fill="black"/>
<path d="M43.4061 0.841797H38.6767V5.57116H43.4061V0.841797Z" fill="black"/>
<path d="M57.5942 0.841797H52.8648V5.57116H57.5942V0.841797Z" fill="black"/>
<path d="M71.7823 0.841797H67.0529V5.57116H71.7823V0.841797Z" fill="black"/>
<path d="M76.5116 0.841797H71.7823V5.57116H76.5116V0.841797Z" fill="black"/>
<path d="M81.241 0.841797H76.5116V5.57116H81.241V0.841797Z" fill="black"/>
<path d="M85.9704 0.841797H81.241V5.57116H85.9704V0.841797Z" fill="black"/>
<path d="M90.6997 0.841797H85.9704V5.57116H90.6997V0.841797Z" fill="black"/>
<path d="M95.4291 0.841797H90.6997V5.57116H95.4291V0.841797Z" fill="black"/>
<path d="M100.158 0.841797H95.4291V5.57116H100.158V0.841797Z" fill="black"/>
<path d="M5.57116 5.57116H0.841797V10.3005H5.57116V5.57116Z" fill="black"/>
<path d="M33.9474 5.57116H29.218V10.3005H33.9474V5.57116Z" fill="black"/>
<path d="M52.8648 5.57116H48.1354V10.3005H52.8648L52.8648 5.57116Z" fill="black"/>
<path d="M57.5942 5.57116H52.8648L52.8648 10.3005H57.5942V5.57116Z" fill="black"/>
<path d="M62.3235 5.57116H57.5942V10.3005H62.3235V5.57116Z" fill="black"/>
<path d="M71.7823 5.57116H67.0529V10.3005H71.7823V5.57116Z" fill="black"/>
<path d="M100.158 5.57116H95.4291V10.3005H100.158V5.57116Z" fill="black"/>
<path d="M5.57116 10.3005H0.841797V15.0299H5.57116V10.3005Z" fill="black"/>
<path d="M15.0299 10.3005H10.3005V15.0299H15.0299V10.3005Z" fill="black"/>
<path d="M19.7593 10.3005H15.0299V15.0299H19.7593V10.3005Z" fill="black"/>
<path d="M24.4886 10.3005H19.7593V15.0299H24.4886V10.3005Z" fill="black"/>
<path d="M33.9474 10.3005H29.218V15.0299H33.9474V10.3005Z" fill="black"/>
<path d="M48.1354 10.3005H43.4061V15.0299H48.1354L48.1354 10.3005Z" fill="black"/>
<path d="M71.7823 10.3005H67.0529V15.0299H71.7823V10.3005Z" fill="black"/>
<path d="M81.241 10.3005H76.5116V15.0299H81.241V10.3005Z" fill="black"/>
<path d="M85.9704 10.3005H81.241V15.0299H85.9704V10.3005Z" fill="black"/>
<path d="M90.6997 10.3005H85.9704V15.0299H90.6997V10.3005Z" fill="black"/>
<path d="M100.158 10.3005H95.4291V15.0299H100.158V10.3005Z" fill="black"/>
<path d="M5.57116 15.0299H0.841797V19.7593H5.57116V15.0299Z" fill="black"/>
<path d="M15.0299 15.0299H10.3005V19.7593H15.0299V15.0299Z" fill="black"/>
<path d="M19.7593 15.0299H15.0299V19.7593H19.7593V15.0299Z" fill="black"/>
<path d="M24.4886 15.0299H19.7593V19.7593H24.4886V15.0299Z" fill="black"/>
<path d="M33.9474 15.0299H29.218V19.7593H33.9474V15.0299Z" fill="black"/>
<path d="M43.4061 15.0299H38.6767V19.7593H43.4061L43.4061 15.0299Z" fill="black"/>
<path d="M57.5942 15.0299H52.8648V19.7593H57.5942V15.0299Z" fill="black"/>
<path d="M71.7823 15.0299H67.0529V19.7593H71.7823V15.0299Z" fill="black"/>
<path d="M81.241 15.0299H76.5116V19.7593H81.241V15.0299Z" fill="black"/>
<path d="M85.9704 15.0299H81.241V19.7593H85.9704V15.0299Z" fill="black"/>
<path d="M90.6997 15.0299H85.9704V19.7593H90.6997V15.0299Z" fill="black"/>
<path d="M100.158 15.0299H95.4291V19.7593H100.158V15.0299Z" fill="black"/>
<path d="M5.57116 19.7593H0.841797V24.4886H5.57116V19.7593Z" fill="black"/>
<path d="M15.0299 19.7593H10.3005V24.4886H15.0299V19.7593Z" fill="black"/>
<path d="M19.7593 19.7593H15.0299V24.4886H19.7593V19.7593Z" fill="black"/>
<path d="M24.4886 19.7593H19.7593V24.4886H24.4886V19.7593Z" fill="black"/>
<path d="M33.9474 19.7593H29.218V24.4886H33.9474V19.7593Z" fill="black"/>
<path d="M52.8648 19.7593H48.1354V24.4886H52.8648L52.8648 19.7593Z" fill="black"/>
<path d="M62.3235 19.7593H57.5942V24.4886H62.3235V19.7593Z" fill="black"/>
<path d="M71.7823 19.7593H67.0529V24.4886H71.7823V19.7593Z" fill="black"/>
<path d="M81.241 19.7593H76.5116V24.4886H81.241V19.7593Z" fill="black"/>
<path d="M85.9704 19.7593H81.241V24.4886H85.9704V19.7593Z" fill="black"/>
<path d="M90.6997 19.7593H85.9704V24.4886H90.6997V19.7593Z" fill="black"/>
<path d="M100.158 19.7593H95.4291V24.4886H100.158V19.7593Z" fill="black"/>
<path d="M5.57116 24.4886H0.841797V29.218H5.57116V24.4886Z" fill="black"/>
<path d="M33.9474 24.4886H29.218V29.218H33.9474V24.4886Z" fill="black"/>
<path d="M43.4061 24.4886H38.6767V29.218H43.4061V24.4886Z" fill="black"/>
<path d="M48.1354 24.4886H43.4061V29.218H48.1354L48.1354 24.4886Z" fill="black"/>
<path d="M52.8648 24.4886H48.1354L48.1354 29.218H52.8648V24.4886Z" fill="black"/>
<path d="M57.5942 24.4886H52.8648V29.218H57.5942V24.4886Z" fill="black"/>
<path d="M62.3235 24.4886H57.5942V29.218H62.3235V24.4886Z" fill="black"/>
<path d="M71.7823 24.4886H67.0529V29.218H71.7823V24.4886Z" fill="black"/>
<path d="M100.158 24.4886H95.4291V29.218H100.158V24.4886Z" fill="black"/>
<path d="M5.57116 29.218H0.841797V33.9474H5.57116V29.218Z" fill="black"/>
<path d="M10.3005 29.218H5.57116V33.9474H10.3005V29.218Z" fill="black"/>
<path d="M15.0299 29.218H10.3005V33.9474H15.0299V29.218Z" fill="black"/>
<path d="M19.7593 29.218H15.0299V33.9474H19.7593V29.218Z" fill="black"/>
<path d="M24.4886 29.218H19.7593V33.9474H24.4886V29.218Z" fill="black"/>
<path d="M29.218 29.218H24.4886V33.9474H29.218V29.218Z" fill="black"/>
<path d="M33.9474 29.218H29.218V33.9474H33.9474V29.218Z" fill="black"/>
<path d="M43.4061 29.218H38.6767V33.9474H43.4061V29.218Z" fill="black"/>
<path d="M52.8648 29.218H48.1354L48.1354 33.9474H52.8648V29.218Z" fill="black"/>
<path d="M62.3235 29.218H57.5942V33.9474H62.3235V29.218Z" fill="black"/>
<path d="M71.7823 29.218H67.0529V33.9474H71.7823V29.218Z" fill="black"/>
<path d="M76.5116 29.218H71.7823V33.9474H76.5116V29.218Z" fill="black"/>
<path d="M81.241 29.218H76.5116V33.9474H81.241V29.218Z" fill="black"/>
<path d="M85.9704 29.218H81.241V33.9474H85.9704V29.218Z" fill="black"/>
<path d="M90.6997 29.218H85.9704V33.9474H90.6997V29.218Z" fill="black"/>
<path d="M95.4291 29.218H90.6997V33.9474H95.4291V29.218Z" fill="black"/>
<path d="M100.158 29.218H95.4291V33.9474H100.158V29.218Z" fill="black"/>
<path d="M48.1354 33.9474H43.4061L43.4061 38.6767H48.1354L48.1354 33.9474Z" fill="black"/>
<path d="M29.218 38.6767H24.4886V43.4061H29.218V38.6767Z" fill="black"/>
<path d="M33.9474 38.6767H29.218V43.4061H33.9474V38.6767Z" fill="black"/>
<path d="M43.4061 38.6767L38.6767 38.6767V43.4061H43.4061L43.4061 38.6767Z" fill="black"/>
<path d="M48.1354 38.6767H43.4061L43.4061 43.4061H48.1354V38.6767Z" fill="black"/>
<path d="M52.8648 38.6767L48.1354 38.6767V43.4061H52.8648V38.6767Z" fill="black"/>
<path d="M62.3235 38.6767H57.5942V43.4061H62.3235V38.6767Z" fill="black"/>
<path d="M67.0529 38.6767H62.3235V43.4061H67.0529V38.6767Z" fill="black"/>
<path d="M76.5116 38.6767H71.7823V43.4061H76.5116V38.6767Z" fill="black"/>
<path d="M85.9704 38.6767H81.241V43.4061H85.9704V38.6767Z" fill="black"/>
<path d="M100.158 38.6767H95.4291V43.4061H100.158V38.6767Z" fill="black"/>
<path d="M10.3005 43.4061H5.57116V48.1354H10.3005V43.4061Z" fill="black"/>
<path d="M15.0299 43.4061H10.3005V48.1354H15.0299V43.4061Z" fill="black"/>
<path d="M19.7593 43.4061H15.0299V48.1354H19.7593V43.4061Z" fill="black"/>
<path d="M24.4886 43.4061L19.7593 43.4061V48.1354H24.4886V43.4061Z" fill="black"/>
<path d="M38.6767 43.4061H33.9474V48.1354H38.6767L38.6767 43.4061Z" fill="black"/>
<path d="M43.4061 43.4061H38.6767L38.6767 48.1354H43.4061V43.4061Z" fill="black"/>
<path d="M57.5942 43.4061H52.8648L52.8648 48.1354H57.5942V43.4061Z" fill="black"/>
<path d="M71.7823 43.4061H67.0529V48.1354H71.7823V43.4061Z" fill="black"/>
<path d="M81.241 43.4061H76.5116V48.1354H81.241V43.4061Z" fill="black"/>
<path d="M85.9704 43.4061H81.241V48.1354H85.9704V43.4061Z" fill="black"/>
<path d="M95.4291 43.4061L90.6997 43.4061V48.1354H95.4291V43.4061Z" fill="black"/>
<path d="M19.7593 48.1354H15.0299V52.8648H19.7593V48.1354Z" fill="black"/>
<path d="M29.218 48.1354L24.4886 48.1354V52.8648H29.218V48.1354Z" fill="black"/>
<path d="M33.9474 48.1354L29.218 48.1354V52.8648H33.9474V48.1354Z" fill="black"/>
<path d="M43.4061 48.1354H38.6767L38.6767 52.8648H43.4061V48.1354Z" fill="black"/>
<path d="M48.1354 48.1354L43.4061 48.1354V52.8648H48.1354V48.1354Z" fill="black"/>
<path d="M52.8648 48.1354L48.1354 48.1354V52.8648H52.8648L52.8648 48.1354Z" fill="black"/>
<path d="M67.0529 48.1354L62.3235 48.1354V52.8648H67.0529V48.1354Z" fill="black"/>
<path d="M71.7823 48.1354H67.0529V52.8648H71.7823V48.1354Z" fill="black"/>
<path d="M76.5116 48.1354H71.7823V52.8648H76.5116V48.1354Z" fill="black"/>
<path d="M95.4291 48.1354H90.6997V52.8648H95.4291V48.1354Z" fill="black"/>
<path d="M15.0299 52.8648L10.3005 52.8648V57.5942H15.0299V52.8648Z" fill="black"/>
<path d="M19.7593 52.8648H15.0299V57.5942H19.7593V52.8648Z" fill="black"/>
<path d="M29.218 52.8648H24.4886V57.5942H29.218V52.8648Z" fill="black"/>
<path d="M38.6767 52.8648H33.9474V57.5942H38.6767L38.6767 52.8648Z" fill="black"/>
<path d="M57.5942 52.8648L52.8648 52.8648L52.8648 57.5942H57.5942V52.8648Z" fill="black"/>
<path d="M67.0529 52.8648H62.3235V57.5942H67.0529V52.8648Z" fill="black"/>
<path d="M76.5116 52.8648H71.7823V57.5942H76.5116V52.8648Z" fill="black"/>
<path d="M81.241 52.8648L76.5116 52.8648V57.5942H81.241V52.8648Z" fill="black"/>
<path d="M85.9704 52.8648H81.241V57.5942H85.9704V52.8648Z" fill="black"/>
<path d="M100.158 52.8648L95.4291 52.8648V57.5942H100.158V52.8648Z" fill="black"/>
<path d="M5.57116 57.5942H0.841797V62.3235H5.57116V57.5942Z" fill="black"/>
<path d="M10.3005 57.5942H5.57116V62.3235H10.3005V57.5942Z" fill="black"/>
<path d="M24.4886 57.5942H19.7593V62.3235H24.4886V57.5942Z" fill="black"/>
<path d="M29.218 57.5942H24.4886V62.3235H29.218V57.5942Z" fill="black"/>
<path d="M33.9474 57.5942H29.218V62.3235H33.9474V57.5942Z" fill="black"/>
<path d="M38.6767 57.5942H33.9474V62.3235H38.6767V57.5942Z" fill="black"/>
<path d="M52.8648 57.5942H48.1354V62.3235H52.8648L52.8648 57.5942Z" fill="black"/>
<path d="M62.3235 57.5942H57.5942V62.3235H62.3235V57.5942Z" fill="black"/>
<path d="M76.5116 57.5942H71.7823V62.3235H76.5116V57.5942Z" fill="black"/>
<path d="M90.6997 57.5942H85.9704V62.3235H90.6997V57.5942Z" fill="black"/>
<path d="M100.158 57.5942H95.4291V62.3235H100.158V57.5942Z" fill="black"/>
<path d="M43.4061 62.3235H38.6767L38.6767 67.0529H43.4061V62.3235Z" fill="black"/>
<path d="M52.8648 62.3235H48.1354V67.0529H52.8648V62.3235Z" fill="black"/>
<path d="M71.7823 62.3235H67.0529V67.0529H71.7823V62.3235Z" fill="black"/>
<path d="M76.5116 62.3235H71.7823V67.0529H76.5116V62.3235Z" fill="black"/>
<path d="M95.4291 62.3235H90.6997V67.0529H95.4291V62.3235Z" fill="black"/>
<path d="M5.57116 67.0529H0.841797V71.7823H5.57116V67.0529Z" fill="black"/>
<path d="M10.3005 67.0529H5.57116V71.7823H10.3005V67.0529Z" fill="black"/>
<path d="M15.0299 67.0529H10.3005V71.7823H15.0299V67.0529Z" fill="black"/>
<path d="M19.7593 67.0529H15.0299V71.7823H19.7593V67.0529Z" fill="black"/>
<path d="M24.4886 67.0529H19.7593V71.7823H24.4886V67.0529Z" fill="black"/>
<path d="M29.218 67.0529H24.4886V71.7823H29.218V67.0529Z" fill="black"/>
<path d="M33.9474 67.0529H29.218V71.7823H33.9474V67.0529Z" fill="black"/>
<path d="M48.1354 67.0529H43.4061L43.4061 71.7823H48.1354L48.1354 67.0529Z" fill="black"/>
<path d="M62.3235 67.0529H57.5942V71.7823H62.3235V67.0529Z" fill="black"/>
<path d="M81.241 67.0529H76.5116V71.7823H81.241V67.0529Z" fill="black"/>
<path d="M95.4291 67.0529H90.6997V71.7823H95.4291V67.0529Z" fill="black"/>
<path d="M5.57116 71.7823H0.841797V76.5116H5.57116V71.7823Z" fill="black"/>
<path d="M33.9474 71.7823H29.218V76.5116H33.9474V71.7823Z" fill="black"/>
<path d="M43.4061 71.7823H38.6767V76.5116H43.4061L43.4061 71.7823Z" fill="black"/>
<path d="M48.1354 71.7823H43.4061L43.4061 76.5116H48.1354V71.7823Z" fill="black"/>
<path d="M57.5942 71.7823H52.8648V76.5116H57.5942V71.7823Z" fill="black"/>
<path d="M5.57116 76.5116H0.841797V81.241H5.57116V76.5116Z" fill="black"/>
<path d="M15.0299 76.5116H10.3005V81.241H15.0299V76.5116Z" fill="black"/>
<path d="M19.7593 76.5116H15.0299V81.241H19.7593V76.5116Z" fill="black"/>
<path d="M24.4886 76.5116H19.7593V81.241H24.4886V76.5116Z" fill="black"/>
<path d="M33.9474 76.5116H29.218V81.241H33.9474V76.5116Z" fill="black"/>
<path d="M57.5942 76.5116H52.8648V81.241H57.5942V76.5116Z" fill="black"/>
<path d="M62.3235 76.5116H57.5942V81.241H62.3235V76.5116Z" fill="black"/>
<path d="M71.7823 76.5116H67.0529V81.241H71.7823V76.5116Z" fill="black"/>
<path d="M76.5116 76.5116H71.7823V81.241H76.5116V76.5116Z" fill="black"/>
<path d="M85.9704 76.5116H81.241V81.241H85.9704V76.5116Z" fill="black"/>
<path d="M90.6997 76.5116H85.9704V81.241H90.6997V76.5116Z" fill="black"/>
<path d="M100.158 76.5116H95.4291V81.241H100.158V76.5116Z" fill="black"/>
<path d="M5.57116 81.241H0.841797V85.9704H5.57116V81.241Z" fill="black"/>
<path d="M15.0299 81.241H10.3005V85.9704H15.0299V81.241Z" fill="black"/>
<path d="M19.7593 81.241H15.0299V85.9704H19.7593V81.241Z" fill="black"/>
<path d="M24.4886 81.241H19.7593V85.9704H24.4886V81.241Z" fill="black"/>
<path d="M33.9474 81.241H29.218V85.9704H33.9474V81.241Z" fill="black"/>
<path d="M48.1354 81.241H43.4061V85.9704H48.1354V81.241Z" fill="black"/>
<path d="M52.8648 81.241H48.1354V85.9704H52.8648L52.8648 81.241Z" fill="black"/>
<path d="M62.3235 81.241H57.5942V85.9704H62.3235V81.241Z" fill="black"/>
<path d="M81.241 81.241H76.5116V85.9704H81.241V81.241Z" fill="black"/>
<path d="M90.6997 81.241H85.9704V85.9704H90.6997V81.241Z" fill="black"/>
<path d="M95.4291 81.241H90.6997V85.9704H95.4291V81.241Z" fill="black"/>
<path d="M100.158 81.241H95.4291V85.9704H100.158V81.241Z" fill="black"/>
<path d="M5.57116 85.9704H0.841797V90.6997H5.57116V85.9704Z" fill="black"/>
<path d="M15.0299 85.9704H10.3005V90.6997H15.0299V85.9704Z" fill="black"/>
<path d="M19.7593 85.9704H15.0299V90.6997H19.7593V85.9704Z" fill="black"/>
<path d="M24.4886 85.9704H19.7593V90.6997H24.4886V85.9704Z" fill="black"/>
<path d="M33.9474 85.9704H29.218V90.6997H33.9474V85.9704Z" fill="black"/>
<path d="M48.1354 85.9704H43.4061V90.6997H48.1354V85.9704Z" fill="black"/>
<path d="M57.5942 85.9704H52.8648L52.8648 90.6997H57.5942V85.9704Z" fill="black"/>
<path d="M67.0529 85.9704H62.3235V90.6997H67.0529V85.9704Z" fill="black"/>
<path d="M76.5116 85.9704H71.7823V90.6997H76.5116V85.9704Z" fill="black"/>
<path d="M81.241 85.9704H76.5116V90.6997H81.241V85.9704Z" fill="black"/>
<path d="M90.6997 85.9704H85.9704V90.6997H90.6997V85.9704Z" fill="black"/>
<path d="M95.4291 85.9704H90.6997V90.6997H95.4291V85.9704Z" fill="black"/>
<path d="M100.158 85.9704H95.4291V90.6997H100.158V85.9704Z" fill="black"/>
<path d="M5.57116 90.6997H0.841797V95.4291H5.57116V90.6997Z" fill="black"/>
<path d="M33.9474 90.6997H29.218V95.4291H33.9474V90.6997Z" fill="black"/>
<path d="M52.8648 90.6997H48.1354L48.1354 95.4291H52.8648L52.8648 90.6997Z" fill="black"/>
<path d="M62.3235 90.6997H57.5942V95.4291H62.3235V90.6997Z" fill="black"/>
<path d="M71.7823 90.6997H67.0529V95.4291H71.7823V90.6997Z" fill="black"/>
<path d="M85.9704 90.6997H81.241V95.4291H85.9704V90.6997Z" fill="black"/>
<path d="M100.158 90.6997H95.4291V95.4291H100.158V90.6997Z" fill="black"/>
<path d="M5.57116 95.4291H0.841797V100.158H5.57116V95.4291Z" fill="black"/>
<path d="M10.3005 95.4291H5.57116V100.158H10.3005V95.4291Z" fill="black"/>
<path d="M15.0299 95.4291H10.3005V100.158H15.0299V95.4291Z" fill="black"/>
<path d="M19.7593 95.4291H15.0299V100.158H19.7593V95.4291Z" fill="black"/>
<path d="M24.4886 95.4291H19.7593V100.158H24.4886V95.4291Z" fill="black"/>
<path d="M29.218 95.4291H24.4886V100.158H29.218V95.4291Z" fill="black"/>
<path d="M33.9474 95.4291H29.218V100.158H33.9474V95.4291Z" fill="black"/>
<path d="M48.1354 95.4291H43.4061V100.158H48.1354L48.1354 95.4291Z" fill="black"/>
<path d="M67.0529 95.4291H62.3235V100.158H67.0529V95.4291Z" fill="black"/>
<path d="M71.7823 95.4291H67.0529V100.158H71.7823V95.4291Z" fill="black"/>
<path d="M76.5116 95.4291H71.7823V100.158H76.5116V95.4291Z" fill="black"/>
<path d="M81.241 95.4291H76.5116V100.158H81.241V95.4291Z" fill="black"/>
<path d="M85.9704 95.4291H81.241V100.158H85.9704V95.4291Z" fill="black"/>
<path d="M90.6997 95.4291H85.9704V100.158H90.6997V95.4291Z" fill="black"/>
</svg>
