<svg width="338" height="147" viewBox="0 0 338 147" fill="none" xmlns="http://www.w3.org/2000/svg">
<path d="M105.059 89.4336H107.059V87.4336H105.059V89.4336ZM105.059 114.824V116.824H107.059V114.824H105.059ZM2.71484 114.824L0.724204 115.017L0.899615 116.824H2.71484V114.824ZM0.761719 94.707L-0.936808 93.6511L-1.29436 94.2262L-1.22892 94.9003L0.761719 94.707ZM57.8906 2.8125V0.8125H56.779L56.1921 1.75656L57.8906 2.8125ZM83.8672 2.8125L85.5738 3.85525L87.4329 0.8125H83.8672V2.8125ZM55.6445 49.0039L53.9379 47.9612L53.9258 47.9809L53.9143 48.0008L55.6445 49.0039ZM32.207 89.4336L30.4768 88.4305L28.7358 91.4336H32.207V89.4336ZM90.7031 2.8125H92.7031V0.8125H90.7031V2.8125ZM90.7031 145V147H92.7031V145H90.7031ZM57.793 145H55.793V147H57.793V145ZM57.793 2.8125V0.8125H55.793V2.8125H57.793ZM103.059 89.4336V114.824H107.059V89.4336H103.059ZM105.059 112.824H2.71484V116.824H105.059V112.824ZM4.70548 114.631L2.75236 94.5138L-1.22892 94.9003L0.724204 115.017L4.70548 114.631ZM2.46025 95.763L59.5892 3.86844L56.1921 1.75656L-0.936808 93.6511L2.46025 95.763ZM57.8906 4.8125H83.8672V0.8125H57.8906V4.8125ZM82.1605 1.76975L53.9379 47.9612L57.3512 50.0467L85.5738 3.85525L82.1605 1.76975ZM53.9143 48.0008L30.4768 88.4305L33.9373 90.4367L57.3748 50.007L53.9143 48.0008ZM32.207 91.4336H105.059V87.4336H32.207V91.4336ZM88.7031 2.8125V145H92.7031V2.8125H88.7031ZM90.7031 143H57.793V147H90.7031V143ZM59.793 145V2.8125H55.793V145H59.793ZM57.793 4.8125H90.7031V0.8125H57.793V4.8125ZM214.922 113.555L213.016 112.947L213.014 112.954L213.012 112.962L214.922 113.555ZM204.766 132.305L203.275 130.971L203.27 130.977L203.265 130.982L204.766 132.305ZM152.715 144.707L152.127 146.619L152.138 146.622L152.149 146.625L152.715 144.707ZM138.945 137.676L137.705 139.245L137.719 139.256L137.733 139.267L138.945 137.676ZM128.496 125.762L130.199 124.712L128.496 125.762ZM121.758 108.965L119.813 109.432L119.814 109.436L121.758 108.965ZM122.93 34.2578L121.024 33.65L121.021 33.6603L122.93 34.2578ZM133.184 15.5078L134.674 16.8414L133.184 15.5078ZM185.234 3.20312L184.639 5.11253L184.654 5.11711L184.669 5.12146L185.234 3.20312ZM199.004 10.2344L197.776 11.8131L197.784 11.8192L197.792 11.8252L199.004 10.2344ZM209.453 22.0508L207.74 23.0832L207.745 23.0918L207.751 23.1003L209.453 22.0508ZM216.191 38.9453L214.247 39.4121L214.248 39.4165L216.191 38.9453ZM184.844 44.8047L182.862 45.0715L182.864 45.0902L182.867 45.1088L184.844 44.8047ZM182.695 36.2109L180.831 36.9358L180.84 36.9581L180.849 36.9802L182.695 36.2109ZM179.277 30.5469L177.8 31.8954L177.815 31.9118L177.831 31.9278L179.277 30.5469ZM174.59 27.3242L173.811 29.1662L173.853 29.1839L173.895 29.1997L174.59 27.3242ZM161.895 27.9102L162.812 29.6874L162.822 29.682L162.833 29.6764L161.895 27.9102ZM153.398 42.3633L151.437 41.971L151.434 41.9868L151.431 42.0026L153.398 42.3633ZM153.008 103.008L151.025 103.27L151.028 103.291L151.031 103.312L153.008 103.008ZM155.156 111.699L153.286 112.407L153.297 112.438L153.31 112.468L155.156 111.699ZM158.672 117.461L157.195 118.809L157.21 118.826L157.225 118.842L158.672 117.461ZM163.359 120.586L162.665 122.461L163.359 120.586ZM175.957 120L176.874 121.777L175.957 120ZM181.133 114.922L179.434 113.866L179.43 113.872L179.426 113.879L181.133 114.922ZM184.453 105.449L182.491 105.063L182.488 105.076L182.486 105.089L184.453 105.449ZM216.535 60.918V86.8945H220.535V60.918H216.535ZM216.535 86.8945C216.535 96.9661 215.348 105.639 213.016 112.947L216.827 114.162C219.314 106.366 220.535 97.2657 220.535 86.8945H216.535ZM213.012 112.962C210.737 120.291 207.478 126.274 203.275 130.971L206.256 133.638C210.908 128.439 214.419 121.922 216.832 114.147L213.012 112.962ZM203.265 130.982C199.109 135.697 194.16 139.19 188.401 141.482L189.88 145.198C196.231 142.672 201.699 138.808 206.266 133.627L203.265 130.982ZM188.401 141.482C182.608 143.786 176.19 144.953 169.121 144.953V148.953C176.636 148.953 183.564 147.711 189.88 145.198L188.401 141.482ZM169.121 144.953C163.433 144.953 158.157 144.226 153.281 142.789L152.149 146.625C157.429 148.182 163.09 148.953 169.121 148.953V144.953ZM153.303 142.795C148.443 141.3 144.066 139.063 140.157 136.085L137.733 139.267C142.028 142.539 146.83 144.989 152.127 146.619L153.303 142.795ZM140.185 136.107C136.347 133.073 133.016 129.283 130.199 124.712L126.794 126.811C129.835 131.746 133.47 135.898 137.705 139.245L140.185 136.107ZM130.199 124.712C127.398 120.168 125.224 114.772 123.702 108.494L119.814 109.436C121.417 116.048 123.735 121.85 126.794 126.811L130.199 124.712ZM123.703 108.498C122.184 102.17 121.414 94.9742 121.414 86.8945H117.414C117.414 95.2211 118.207 102.739 119.813 109.432L123.703 108.498ZM121.414 86.8945V60.918H117.414V86.8945H121.414ZM121.414 60.918C121.414 50.7749 122.571 42.0995 124.838 34.8553L121.021 33.6603C118.601 41.3901 117.414 50.4881 117.414 60.918H121.414ZM124.835 34.8656C127.175 27.5307 130.468 21.5426 134.674 16.8414L131.693 14.1742C127.045 19.3688 123.502 25.8807 121.024 33.65L124.835 34.8656ZM134.674 16.8414C138.899 12.1197 143.884 8.62319 149.646 6.33098L148.167 2.61433C141.819 5.13983 136.323 9.00014 131.693 14.1742L134.674 16.8414ZM149.646 6.33098C155.439 4.02622 161.857 2.85938 168.926 2.85938V-1.14062C161.411 -1.14062 154.483 0.101381 148.167 2.61433L149.646 6.33098ZM168.926 2.85938C174.606 2.85938 179.84 3.61659 184.639 5.11253L185.83 1.29372C180.603 -0.335338 174.964 -1.14062 168.926 -1.14062V2.85938ZM184.669 5.12146C189.511 6.54944 193.876 8.77956 197.776 11.8131L200.232 8.65567C195.929 5.30898 191.114 2.8516 185.8 1.28479L184.669 5.12146ZM197.792 11.8252C201.678 14.786 204.996 18.5301 207.74 23.0832L211.166 21.0183C208.181 16.0663 204.533 11.9327 200.216 8.64351L197.792 11.8252ZM207.751 23.1003C210.55 27.6409 212.724 33.0678 214.247 39.4121L218.136 38.4786C216.534 31.802 214.216 25.9659 211.156 21.0013L207.751 23.1003ZM214.248 39.4165C215.765 45.6763 216.535 52.8378 216.535 60.918H220.535C220.535 52.5919 219.743 45.105 218.135 38.4741L214.248 39.4165ZM187.625 90.8984V56.7188H183.625V90.8984H187.625ZM187.625 56.7188C187.625 52.0907 187.361 48.0133 186.82 44.5006L182.867 45.1088C183.368 48.367 183.625 52.2322 183.625 56.7188H187.625ZM186.826 44.5379C186.354 41.0351 185.604 37.9907 184.541 35.4417L180.849 36.9802C181.74 39.1187 182.422 41.8035 182.862 45.0715L186.826 44.5379ZM184.559 35.486C183.578 32.9617 182.314 30.8311 180.724 29.1659L177.831 31.9278C178.976 33.1273 179.99 34.7727 180.831 36.9358L184.559 35.486ZM180.754 29.1983C179.19 27.4851 177.365 26.2194 175.284 25.4487L173.895 29.1997C175.33 29.7311 176.63 30.6139 177.8 31.8954L180.754 29.1983ZM175.369 25.4823C173.399 24.6488 171.241 24.25 168.926 24.25V28.25C170.777 28.25 172.395 28.5674 173.811 29.1662L175.369 25.4823ZM168.926 24.25C166.029 24.25 163.358 24.8682 160.956 26.1439L162.833 29.6764C164.598 28.7386 166.614 28.25 168.926 28.25V24.25ZM160.977 26.1329C158.572 27.3746 156.595 29.3548 155.012 31.9454L158.425 34.0312C159.707 31.9342 161.181 30.5291 162.812 29.6874L160.977 26.1329ZM155.012 31.9454C153.416 34.5578 152.246 37.9291 151.437 41.971L155.36 42.7555C156.114 38.9849 157.157 36.1063 158.425 34.0312L155.012 31.9454ZM151.431 42.0026C150.686 46.0662 150.324 50.9802 150.324 56.7188H154.324C154.324 51.1291 154.678 46.4728 155.366 42.7239L151.431 42.0026ZM150.324 56.7188V90.8984H154.324V56.7188H150.324ZM150.324 90.8984C150.324 95.5819 150.555 99.7095 151.025 103.27L154.991 102.746C154.549 99.4051 154.324 95.4598 154.324 90.8984H150.324ZM151.031 103.312C151.567 106.793 152.312 109.833 153.286 112.407L157.027 110.991C156.178 108.748 155.491 105.993 154.985 102.704L151.031 103.312ZM153.31 112.468C154.354 114.974 155.639 117.105 157.195 118.809L160.149 116.112C158.971 114.822 157.912 113.112 157.002 110.93L153.31 112.468ZM157.225 118.842C158.79 120.481 160.606 121.699 162.665 122.461L164.054 118.71C162.597 118.171 161.288 117.305 160.119 116.08L157.225 118.842ZM162.665 122.461C164.668 123.203 166.827 123.562 169.121 123.562V119.562C167.249 119.562 165.566 119.27 164.054 118.71L162.665 122.461ZM169.121 123.562C171.941 123.562 174.54 122.982 176.874 121.777L175.04 118.223C173.337 119.102 171.379 119.562 169.121 119.562V123.562ZM176.874 121.777C179.28 120.536 181.256 118.555 182.839 115.965L179.426 113.879C178.145 115.976 176.67 117.381 175.04 118.223L176.874 121.777ZM182.831 115.978C184.503 113.289 185.676 109.871 186.42 105.81L182.486 105.089C181.798 108.84 180.758 111.737 179.434 113.866L182.831 115.978ZM186.416 105.835C187.23 101.696 187.625 96.7084 187.625 90.8984H183.625C183.625 96.5468 183.239 101.259 182.491 105.063L186.416 105.835ZM337.09 89.4336H339.09V87.4336H337.09V89.4336ZM337.09 114.824V116.824H339.09V114.824H337.09ZM234.746 114.824L232.755 115.017L232.931 116.824H234.746V114.824ZM232.793 94.707L231.094 93.6511L230.737 94.2262L230.802 94.9003L232.793 94.707ZM289.922 2.8125V0.8125H288.81L288.223 1.75656L289.922 2.8125ZM315.898 2.8125L317.605 3.85525L319.464 0.8125H315.898V2.8125ZM287.676 49.0039L285.969 47.9612L285.957 47.9809L285.946 48.0008L287.676 49.0039ZM264.238 89.4336L262.508 88.4305L260.767 91.4336H264.238V89.4336ZM322.734 2.8125H324.734V0.8125H322.734V2.8125ZM322.734 145V147H324.734V145H322.734ZM289.824 145H287.824V147H289.824V145ZM289.824 2.8125V0.8125H287.824V2.8125H289.824ZM335.09 89.4336V114.824H339.09V89.4336H335.09ZM337.09 112.824H234.746V116.824H337.09V112.824ZM236.737 114.631L234.784 94.5138L230.802 94.9003L232.755 115.017L236.737 114.631ZM234.491 95.763L291.62 3.86844L288.223 1.75656L231.094 93.6511L234.491 95.763ZM289.922 4.8125H315.898V0.8125H289.922V4.8125ZM314.192 1.76975L285.969 47.9612L289.382 50.0467L317.605 3.85525L314.192 1.76975ZM285.946 48.0008L262.508 88.4305L265.969 90.4367L289.406 50.007L285.946 48.0008ZM264.238 91.4336H337.09V87.4336H264.238V91.4336ZM320.734 2.8125V145H324.734V2.8125H320.734ZM322.734 143H289.824V147H322.734V143ZM291.824 145V2.8125H287.824V145H291.824ZM289.824 4.8125H322.734V0.8125H289.824V4.8125Z" fill="#B08F76"/>
</svg>
