<svg width="25" height="29" viewBox="0 0 25 29" fill="none" xmlns="http://www.w3.org/2000/svg">
<path fill-rule="evenodd" clip-rule="evenodd" d="M17.9238 0.232509C18.2434 0.182173 18.57 0.25773 18.8351 0.443292C19.1002 0.628854 19.2829 0.909963 19.345 1.22751C19.5913 2.89251 19.6575 4.62876 19.12 6.24751C19.54 6.29501 19.9838 6.39501 20.4513 6.56126C22.5825 7.32126 23.8463 9.02876 24.5613 10.7638C24.6448 10.9659 24.6738 11.1864 24.6454 11.4033C24.617 11.6201 24.5322 11.8257 24.3995 11.9996C24.2668 12.1734 24.0908 12.3094 23.8891 12.3939C23.6874 12.4784 23.467 12.5085 23.25 12.4813C21.55 12.2675 20.5 14.1113 20.5 15.59C20.5 17.0825 21.5775 18.9475 23.2925 18.6938C23.5059 18.6621 23.7238 18.6862 23.9251 18.7637C24.1264 18.8413 24.3043 18.9696 24.4413 19.1362C24.5783 19.3028 24.6699 19.502 24.7071 19.7145C24.7444 19.927 24.726 20.1455 24.6537 20.3488C23.505 23.5863 21.2663 26.7113 18.6413 28.28C18.3045 28.4869 17.9296 28.6241 17.5388 28.6834C17.148 28.7426 16.7492 28.7228 16.3662 28.625C15.785 28.485 15.2563 28.2 14.7375 27.9163C13.9988 27.5113 13.5225 27.2775 13 27.2775C12.4775 27.2775 12.0012 27.5113 11.2625 27.915C10.7437 28.2013 10.215 28.485 9.63375 28.625C9.25077 28.7229 8.85204 28.7427 8.46123 28.6835C8.07041 28.6242 7.6955 28.487 7.35875 28.28C5.435 27.13 3.73375 25.155 2.52 22.9525C1.3 20.7438 0.5 18.1788 0.5 15.7688C0.5 14.3563 0.73 12.4763 1.44375 10.7513C2.16 9.02001 3.4225 7.31876 5.54875 6.56001C8.01375 5.68001 9.80875 6.66251 11.0488 7.44626C11.065 6.25626 11.2638 4.61501 12.17 3.32126C13.425 1.52876 15.8137 0.563759 17.925 0.231259L17.9238 0.232509ZM6.3875 8.91626C7.83375 8.40001 8.76 8.95001 10.025 9.76126C10.9275 10.3413 11.8875 10.9263 12.9987 10.9263C14.11 10.9263 15.07 10.3413 15.9725 9.76126C17.2375 8.94876 18.1638 8.40001 19.61 8.91626C20.34 9.17626 20.935 9.63751 21.4125 10.2475C19.3475 11.0125 18 13.2313 18 15.59C18 18.0438 19.4588 20.3475 21.6675 21.0188C20.5888 23.2463 18 25.99 17.3588 26.1338C16.8613 26.2463 16.3037 25.9238 15.9387 25.7238C15.0212 25.22 14.0688 24.7763 13 24.7763C11.785 24.7763 10.79 25.3225 10.1325 25.685C9.7425 25.8975 9.10375 26.41 8.64125 26.135C7.2025 25.2725 5.7775 23.6813 4.70875 21.7438C3.6425 19.8125 3 17.6625 3 15.7688C3 14.585 3.19875 13.0488 3.75375 11.7075C4.30625 10.375 5.15 9.35751 6.3875 8.91626ZM16.36 6.25626C15.7225 7.16751 14.5812 7.65251 13.5537 7.98376C13.5137 6.90501 13.5787 5.66626 14.2162 4.75501C14.8537 3.84501 15.9962 3.35876 17.0237 3.02751C17.0637 4.10626 16.9988 5.34501 16.3613 6.25626H16.36Z" fill="#676767"/>
</svg>
