<svg width="25" height="26" viewBox="0 0 25 26" fill="none" xmlns="http://www.w3.org/2000/svg">
<path d="M12.3444 25.0018C19.3222 25.0018 25 20.2859 25 14.487C25 8.72904 16.0139 0.00177002 12.3444 0.00177002C8.85833 0.00177002 0 8.887 0 14.487C0 20.2859 5.5375 25.0018 12.3444 25.0018Z" fill="#0E0D0D"/>
<path fill-rule="evenodd" clip-rule="evenodd" d="M11.5987 13.1188C11.6375 12.3663 11.6764 11.6532 11.7541 11.178C11.9488 9.63337 12.3766 9.1185 12.7656 8.76193C13.3492 8.24705 14.0106 7.96985 14.8274 7.96985C16.6169 7.96985 18.2507 9.31649 17.9395 10.782C17.9007 10.98 17.8228 11.0989 17.8228 11.178C18.0564 9.98994 17.0837 8.60353 15.5278 8.60353C14.244 8.60353 12.8824 8.99961 12.8824 10.8613C12.8824 11.7326 13.388 12.9603 15.5278 12.8811C16.3836 12.8414 18.2508 12.5247 18.2508 10.6631C18.2508 8.99961 16.9281 7.534 12.9992 7.534C8.68115 7.534 6.15256 9.67297 5.95801 13.1187C5.95801 13.2375 5.95801 13.396 5.95801 13.5543C5.95801 15.1387 6.42497 16.4855 7.28077 17.5153C7.30892 17.5486 7.33786 17.5817 7.36696 17.6144C7.68364 17.9708 8.05125 18.2884 8.46772 18.563C9.646 19.3399 11.2181 19.7729 13.1547 19.7729C15.8779 19.7729 17.1614 18.5451 17.7451 17.5153C18.0174 17.04 18.1341 16.6043 18.2119 16.3667C18.3286 15.6536 17.9785 15.6933 17.9396 16.2082C17.9007 16.6835 17.7062 17.1191 17.4728 17.5153C16.8114 18.5847 15.4888 19.4164 14.1662 19.4164C13.8045 19.3903 13.5974 19.3811 13.3279 19.2623C13.1918 19.2019 13.0394 19.1138 12.8436 18.9807C12.5323 18.7827 12.2212 18.2678 11.9878 17.5152C11.9099 17.3567 11.871 17.1586 11.8322 16.9607C11.6375 16.0103 11.5598 14.4655 11.5987 13.1188Z" fill="white"/>
</svg>
