<svg width="14" height="14" viewBox="0 0 14 14" fill="none" xmlns="http://www.w3.org/2000/svg">
<path d="M7.08711 -0.000976562C3.17956 -0.000976562 0 2.63993 0 5.8873C0 9.11175 5.03222 13.999 7.08711 13.999C9.03933 13.999 14 9.0233 14 5.8873C14 2.63993 10.899 -0.000976562 7.08711 -0.000976562Z" fill="#0E0D0D"/>
<path fill-rule="evenodd" clip-rule="evenodd" d="M6.93849 6.0547C6.96022 5.63326 6.982 5.23396 7.02556 4.96785C7.13456 4.10285 7.37413 3.81452 7.59198 3.61484C7.91882 3.32651 8.28917 3.17128 8.74658 3.17128C9.74869 3.17128 10.6636 3.9254 10.4893 4.74609C10.4676 4.85697 10.424 4.92355 10.424 4.96785C10.5548 4.30253 10.0101 3.52614 9.13881 3.52614C8.41989 3.52614 7.65736 3.74794 7.65736 4.79049C7.65736 5.27841 7.94055 5.96595 9.13881 5.9216C9.61806 5.89937 10.6637 5.72197 10.6637 4.67952C10.6637 3.74794 9.92297 2.9272 7.7228 2.9272C5.30468 2.9272 3.88867 4.12503 3.77972 6.05465C3.77972 6.12118 3.77972 6.20993 3.77972 6.29858C3.77972 7.18585 4.04122 7.94002 4.52047 8.51673C4.53624 8.5354 4.55244 8.55392 4.56874 8.57225C4.74608 8.77183 4.95194 8.94968 5.18516 9.10342C5.845 9.53849 6.72535 9.78099 7.80987 9.78099C9.33488 9.78099 10.0537 9.09345 10.3805 8.51673C10.533 8.25058 10.5983 8.00655 10.6419 7.87349C10.7072 7.47418 10.5112 7.49641 10.4894 7.78474C10.4677 8.0509 10.3587 8.29488 10.228 8.51673C9.85764 9.11562 9.11698 9.58136 8.37628 9.58136C8.17377 9.56674 8.05779 9.56155 7.90688 9.49503C7.83063 9.46125 7.74531 9.41191 7.63568 9.33733C7.46135 9.22645 7.28711 8.93812 7.15643 8.51668C7.11278 8.42793 7.091 8.31696 7.06927 8.20613C6.96022 7.67391 6.91671 6.80887 6.93849 6.0547Z" fill="white"/>
</svg>
