<svg width="18" height="18" viewBox="0 0 18 18" fill="none" xmlns="http://www.w3.org/2000/svg">
<path d="M7.39996 8.04984C7.44163 7.77484 7.53329 7.53317 7.64996 7.32484C7.76663 7.1165 7.93329 6.9415 8.14163 6.80817C8.34163 6.68317 8.59163 6.62484 8.89996 6.6165C9.09163 6.62484 9.26663 6.65817 9.42496 6.72484C9.59163 6.79984 9.74163 6.89984 9.85829 7.02484C9.97496 7.14984 10.0666 7.29984 10.1416 7.4665C10.2166 7.63317 10.25 7.8165 10.2583 7.99984H11.75C11.7333 7.60817 11.6583 7.24984 11.5166 6.92484C11.375 6.59984 11.1833 6.3165 10.9333 6.08317C10.6833 5.84984 10.3833 5.6665 10.0333 5.53317C9.68329 5.39984 9.29996 5.3415 8.87496 5.3415C8.33329 5.3415 7.85829 5.43317 7.45829 5.62484C7.05829 5.8165 6.72496 6.0665 6.45829 6.3915C6.19163 6.7165 5.99163 7.0915 5.86663 7.52484C5.74163 7.95817 5.66663 8.40817 5.66663 8.8915V9.1165C5.66663 9.59984 5.73329 10.0498 5.85829 10.4832C5.98329 10.9165 6.18329 11.2915 6.44996 11.6082C6.71663 11.9248 7.04996 12.1832 7.44996 12.3665C7.84996 12.5498 8.32496 12.6498 8.86663 12.6498C9.25829 12.6498 9.62496 12.5832 9.96663 12.4582C10.3083 12.3332 10.6083 12.1582 10.8666 11.9332C11.125 11.7082 11.3333 11.4498 11.4833 11.1498C11.6333 10.8498 11.725 10.5332 11.7333 10.1915H10.2416C10.2333 10.3665 10.1916 10.5248 10.1166 10.6748C10.0416 10.8248 9.94163 10.9498 9.81663 11.0582C9.69163 11.1665 9.54996 11.2498 9.38329 11.3082C9.22496 11.3665 9.05829 11.3832 8.88329 11.3915C8.58329 11.3832 8.33329 11.3248 8.14163 11.1998C7.93329 11.0665 7.76663 10.8915 7.64996 10.6832C7.53329 10.4748 7.44163 10.2248 7.39996 9.94984C7.35829 9.67484 7.33329 9.3915 7.33329 9.1165V8.8915C7.33329 8.59984 7.35829 8.32484 7.39996 8.04984ZM8.99996 0.666504C4.39996 0.666504 0.666626 4.39984 0.666626 8.99984C0.666626 13.5998 4.39996 17.3332 8.99996 17.3332C13.6 17.3332 17.3333 13.5998 17.3333 8.99984C17.3333 4.39984 13.6 0.666504 8.99996 0.666504ZM8.99996 15.6665C5.32496 15.6665 2.33329 12.6748 2.33329 8.99984C2.33329 5.32484 5.32496 2.33317 8.99996 2.33317C12.675 2.33317 15.6666 5.32484 15.6666 8.99984C15.6666 12.6748 12.675 15.6665 8.99996 15.6665Z" fill="#676767"/>
</svg>
