<svg width="20" height="20" viewBox="0 0 20 20" fill="none" xmlns="http://www.w3.org/2000/svg">
<path d="M19.2041 13.573L20 14.0393C19.2041 16.1573 17.921 17.7022 16.2642 18.6742C14.7374 19.5337 12.8695 20 10.693 20C7.47158 20 4.91067 19.1011 2.9399 17.309C0.969139 15.5506 0 13.1404 0 10.0899C0 6.85955 1.14239 4.30899 3.49215 2.47753C5.5712 0.825843 8.09421 0 11.072 0C14.2177 0 16.5403 0.685393 18.0238 2.05056C19.2691 3.16292 19.8971 4.63483 19.8971 6.46629C19.8971 7.79213 19.5452 8.87079 18.8197 9.66292C18.0942 10.4888 17.1251 10.882 15.9177 10.882C14.9107 10.882 14.0119 10.4888 13.2864 9.69663C12.523 8.91011 12.1765 7.9382 12.1765 6.82584C12.1765 5.7809 12.4201 4.92135 12.8695 4.27528C13.2539 3.70225 13.8766 3.19663 14.7753 2.69663C14.8782 2.6573 15.0135 2.58989 15.1543 2.47753C15.2572 2.41011 15.3276 2.30337 15.3276 2.19101C15.3276 1.83146 15.0514 1.58427 14.5317 1.40449C13.9794 1.22472 13.5301 1.11798 13.1132 1.11798C11.5214 1.11798 10.5143 1.6573 10.065 2.73034C9.51272 4.09551 9.2366 7.14607 9.2366 11.9213C9.2366 14.4719 9.58311 16.2303 10.3465 17.2022C10.9691 18.0281 11.9383 18.4213 13.216 18.4213C14.6021 18.4213 15.7769 17.9888 16.7786 17.1292C17.7477 16.264 18.5815 15.0843 19.2041 13.573Z" fill="black"/>
</svg>
