<svg width="24" height="25" viewBox="0 0 24 25" fill="none" xmlns="http://www.w3.org/2000/svg">
<path d="M12 21.3437C11.355 20.7717 10.626 20.1767 9.85502 19.5437H9.84502C7.13002 17.3237 4.05302 14.8117 2.69402 11.8017C2.24754 10.8434 2.01093 9.80078 2.00001 8.74365C1.99703 7.29314 2.57879 5.90264 3.61383 4.88642C4.64887 3.8702 6.04981 3.31405 7.50002 3.34365C8.68065 3.34552 9.83586 3.68673 10.828 4.32665C11.264 4.60962 11.6584 4.95191 12 5.34365C12.3435 4.95345 12.7381 4.61136 13.173 4.32665C14.1648 3.68661 15.3197 3.34537 16.5 3.34365C17.9502 3.31405 19.3512 3.8702 20.3862 4.88642C21.4213 5.90264 22.003 7.29314 22 8.74365C21.9898 9.80247 21.7532 10.8468 21.306 11.8067C19.947 14.8167 16.871 17.3277 14.156 19.5437L14.146 19.5517C13.374 20.1807 12.646 20.7757 12.001 21.3517L12 21.3437ZM7.50002 5.34365C6.56853 5.332 5.67009 5.6885 5.00002 6.33565C4.35441 6.96982 3.99358 7.8387 3.99994 8.74365C4.01135 9.51415 4.18585 10.2735 4.51202 10.9717C5.15353 12.2704 6.01913 13.4457 7.06902 14.4437C8.06002 15.4437 9.20002 16.4117 10.186 17.2257C10.459 17.4507 10.737 17.6777 11.015 17.9047L11.19 18.0477C11.457 18.2657 11.733 18.4917 12 18.7137L12.013 18.7017L12.019 18.6967H12.025L12.034 18.6897H12.039H12.044L12.062 18.6747L12.103 18.6417L12.11 18.6357L12.121 18.6277H12.127L12.136 18.6197L12.8 18.0747L12.974 17.9317C13.255 17.7027 13.533 17.4757 13.806 17.2507C14.792 16.4367 15.933 15.4697 16.924 14.4647C17.9741 13.4672 18.8397 12.2922 19.481 10.9937C19.8131 10.2895 19.9901 9.52216 20.0001 8.74365C20.0042 7.84149 19.6435 6.97595 19 6.34365C18.3312 5.69357 17.4326 5.33414 16.5 5.34365C15.3619 5.33398 14.274 5.81102 13.51 6.65465L12 8.39465L10.49 6.65465C9.72609 5.81102 8.6381 5.33398 7.50002 5.34365Z" fill="#B08F76"/>
</svg>
