<svg width="30" height="30" viewBox="0 0 30 30" fill="none" xmlns="http://www.w3.org/2000/svg">
<circle cx="15" cy="15" r="15" fill="#95CC49"/>
<path d="M10.9 21H19.207V19.983H12.475L17.506 15.42C18.1 14.886 18.532 14.352 18.802 13.818C19.072 13.278 19.207 12.621 19.207 11.847C19.207 11.103 19.027 10.422 18.667 9.804C18.307 9.186 17.818 8.694 17.2 8.328C16.588 7.956 15.895 7.77 15.121 7.77C14.353 7.77 13.657 7.95 13.033 8.31C12.415 8.67 11.923 9.159 11.557 9.777C11.191 10.389 11.008 11.076 11.008 11.838H12.052C12.052 11.292 12.184 10.788 12.448 10.326C12.718 9.864 13.084 9.492 13.546 9.21C14.008 8.928 14.53 8.787 15.112 8.787C15.682 8.787 16.195 8.925 16.651 9.201C17.113 9.471 17.479 9.837 17.749 10.299C18.019 10.761 18.154 11.274 18.154 11.838C18.154 12.336 18.073 12.804 17.911 13.242C17.749 13.674 17.404 14.127 16.876 14.601L10.918 20.01L10.9 21Z" fill="white"/>
</svg>
