<svg width="26" height="26" viewBox="0 0 26 26" fill="none" xmlns="http://www.w3.org/2000/svg">
<path fill-rule="evenodd" clip-rule="evenodd" d="M0.5 5.5C0.5 4.17392 1.02678 2.90215 1.96447 1.96447C2.90215 1.02678 4.17392 0.5 5.5 0.5H20.5C21.8261 0.5 23.0979 1.02678 24.0355 1.96447C24.9732 2.90215 25.5 4.17392 25.5 5.5V20.5C25.5 21.8261 24.9732 23.0979 24.0355 24.0355C23.0979 24.9732 21.8261 25.5 20.5 25.5H5.5C4.17392 25.5 2.90215 24.9732 1.96447 24.0355C1.02678 23.0979 0.5 21.8261 0.5 20.5V5.5ZM5.5 3C4.83696 3 4.20107 3.26339 3.73223 3.73223C3.26339 4.20107 3 4.83696 3 5.5V20.5C3 21.163 3.26339 21.7989 3.73223 22.2678C4.20107 22.7366 4.83696 23 5.5 23H13V14.25H11.75C11.4185 14.25 11.1005 14.1183 10.8661 13.8839C10.6317 13.6495 10.5 13.3315 10.5 13C10.5 12.6685 10.6317 12.3505 10.8661 12.1161C11.1005 11.8817 11.4185 11.75 11.75 11.75H13V9.875C13 8.71468 13.4609 7.60188 14.2814 6.78141C15.1019 5.96094 16.2147 5.5 17.375 5.5H18.125C18.4565 5.5 18.7745 5.6317 19.0089 5.86612C19.2433 6.10054 19.375 6.41848 19.375 6.75C19.375 7.08152 19.2433 7.39946 19.0089 7.63388C18.7745 7.8683 18.4565 8 18.125 8H17.375C17.1288 8 16.885 8.0485 16.6575 8.14273C16.43 8.23695 16.2233 8.37506 16.0492 8.54917C15.8751 8.72328 15.737 8.92998 15.6427 9.15747C15.5485 9.38495 15.5 9.62877 15.5 9.875V11.75H18.125C18.4565 11.75 18.7745 11.8817 19.0089 12.1161C19.2433 12.3505 19.375 12.6685 19.375 13C19.375 13.3315 19.2433 13.6495 19.0089 13.8839C18.7745 14.1183 18.4565 14.25 18.125 14.25H15.5V23H20.5C21.163 23 21.7989 22.7366 22.2678 22.2678C22.7366 21.7989 23 21.163 23 20.5V5.5C23 4.83696 22.7366 4.20107 22.2678 3.73223C21.7989 3.26339 21.163 3 20.5 3H5.5Z" fill="#676767"/>
</svg>
