<svg width="24" height="24" viewBox="0 0 24 24" fill="none" xmlns="http://www.w3.org/2000/svg">
<path fill-rule="evenodd" clip-rule="evenodd" d="M12 3.25C10.3229 3.25043 8.68124 3.73283 7.2705 4.63977C5.85976 5.5467 4.73939 6.83996 4.04278 8.36556C3.34616 9.89115 3.10266 11.5848 3.34126 13.2449C3.57987 14.9049 4.29052 16.4614 5.38861 17.7291C6.4867 18.9967 7.92597 19.9221 9.53503 20.395C11.1441 20.8679 12.8552 20.8684 14.4645 20.3964C16.0738 19.9245 17.5137 19 18.6125 17.733C19.7113 16.466 20.4229 14.9099 20.6625 13.25H13.25C12.9185 13.25 12.6005 13.1183 12.3661 12.8839C12.1317 12.6495 12 12.3315 12 12C12 11.6685 12.1317 11.3505 12.3661 11.1161C12.6005 10.8817 12.9185 10.75 13.25 10.75H22C22.3315 10.75 22.6495 10.8817 22.8839 11.1161C23.1183 11.3505 23.25 11.6685 23.25 12C23.2497 14.5518 22.382 17.0276 20.7892 19.0212C19.1963 21.0148 16.9731 22.4076 14.4843 22.9711C11.9956 23.5346 9.38916 23.2353 7.09295 22.1222C4.79673 21.0092 2.94712 19.1486 1.84771 16.8458C0.748306 14.5431 0.464419 11.9349 1.04265 9.44957C1.62088 6.96419 3.02688 4.74923 5.02986 3.16824C7.03284 1.58725 9.5138 0.734175 12.0655 0.749031C14.6172 0.763888 17.0881 1.64579 19.0725 3.25C19.3303 3.45852 19.4946 3.7609 19.5294 4.09062C19.5643 4.42033 19.4667 4.75037 19.2581 5.00812C19.0496 5.26588 18.7472 5.43024 18.4175 5.46506C18.0878 5.49987 17.7578 5.40227 17.5 5.19375C15.9446 3.93283 14.0023 3.24638 12 3.25V3.25Z" fill="#676767"/>
</svg>
