<svg width="20" height="20" viewBox="0 0 20 20" fill="none" xmlns="http://www.w3.org/2000/svg">
<path fill-rule="evenodd" clip-rule="evenodd" d="M17.1923 6.72019C17.6225 6.75419 17.9433 7.11519 17.909 7.52819C17.9027 7.59619 17.3381 14.3072 17.0131 17.1222C16.811 18.8692 15.609 19.9322 13.7944 19.9642C12.4058 19.9872 11.0662 20.0002 9.75688 20.0002C8.34542 20.0002 6.96937 19.9852 5.60792 19.9582C3.86625 19.9252 2.66104 18.8412 2.46417 17.1292C2.13604 14.2892 1.57458 7.59519 1.56937 7.52819C1.53396 7.11519 1.85479 6.75319 2.285 6.72019C2.70896 6.70919 3.09229 6.99519 3.12667 7.40719C3.12999 7.45059 3.35952 10.1842 3.60965 12.8889L3.65989 13.4286C3.78587 14.773 3.91357 16.0648 4.01729 16.9642C4.12875 17.9372 4.67562 18.4392 5.64021 18.4582C8.24437 18.5112 10.9017 18.5142 13.7662 18.4642C14.7912 18.4452 15.3454 17.9532 15.46 16.9572C15.7829 14.1632 16.3454 7.47519 16.3517 7.40719C16.386 6.99519 16.7662 6.70719 17.1923 6.72019ZM11.9431 0.000488281C12.8994 0.000488281 13.74 0.619488 13.9869 1.50649L14.2515 2.76749C14.337 3.18086 14.7148 3.48275 15.1524 3.48938L18.5708 3.48949C19.0021 3.48949 19.3521 3.82549 19.3521 4.23949C19.3521 4.65349 19.0021 4.98949 18.5708 4.98949L15.1829 4.98934C15.1776 4.98944 15.1724 4.98949 15.1671 4.98949L15.1417 4.98849L4.33502 4.98937C4.32662 4.98945 4.31821 4.98949 4.30979 4.98949L4.29375 4.98849L0.90625 4.98949C0.475 4.98949 0.125 4.65349 0.125 4.23949C0.125 3.82549 0.475 3.48949 0.90625 3.48949L4.32396 3.48849L4.42919 3.48209C4.82116 3.43327 5.14691 3.14749 5.22646 2.76749L5.47958 1.55149C5.73687 0.619488 6.5775 0.000488281 7.53375 0.000488281H11.9431ZM11.9431 1.50049H7.53375C7.28375 1.50049 7.06396 1.66149 7.00042 1.89249L6.75771 3.06249C6.72686 3.21068 6.68194 3.3535 6.62446 3.48976H12.8527C12.7952 3.3535 12.7502 3.21068 12.7192 3.06249L12.466 1.84649C12.4129 1.66149 12.1931 1.50049 11.9431 1.50049Z" fill="black"/>
</svg>
