<svg width="255" height="45" viewBox="0 0 255 45" fill="none" xmlns="http://www.w3.org/2000/svg">
<path d="M29.7335 35.1673L30.9466 35.8464C29.7335 38.9309 27.7777 41.1809 25.2525 42.5964C22.9253 43.8482 20.0782 44.5273 16.7607 44.5273C11.8505 44.5273 7.94711 43.2182 4.94323 40.6082C1.93934 38.0473 0.462158 34.5373 0.462158 30.0946C0.462158 25.39 2.20342 21.6755 5.78497 19.0082C8.95391 16.6028 12.7995 15.4 17.3384 15.4C22.133 15.4 25.6733 16.3982 27.9345 18.3864C29.8325 20.0064 30.7898 22.15 30.7898 24.8173C30.7898 26.7482 30.2534 28.3191 29.1476 29.4728C28.0418 30.6755 26.5646 31.2482 24.7243 31.2482C23.1893 31.2482 21.8194 30.6755 20.7136 29.5218C19.55 28.3764 19.0219 26.9609 19.0219 25.3409C19.0219 23.8191 19.3932 22.5673 20.0782 21.6264C20.6641 20.7918 21.6131 20.0555 22.983 19.3273C23.1398 19.27 23.3461 19.1718 23.5607 19.0082C23.7175 18.91 23.8248 18.7546 23.8248 18.5909C23.8248 18.0673 23.4039 17.7073 22.6117 17.4455C21.7699 17.1837 21.085 17.0282 20.4495 17.0282C18.0233 17.0282 16.4884 17.8137 15.8034 19.3764C14.9617 21.3646 14.5408 25.8073 14.5408 32.7618C14.5408 36.4764 15.069 39.0373 16.2325 40.4528C17.1816 41.6555 18.6588 42.2282 20.6063 42.2282C22.719 42.2282 24.5097 41.5982 26.0364 40.3464C27.5136 39.0864 28.7845 37.3682 29.7335 35.1673ZM254.761 42.6946H236.044V41.2873H238.999V3.2173H235.937V1.81003C237.464 1.81003 240.789 1.5973 245.848 1.2373C248.332 1.02458 250.337 0.918213 251.815 0.918213V41.2873H254.761V42.6946ZM175.975 17.3391H173.128V15.9237C175.026 15.9237 176.973 15.8746 178.871 15.7682C184.673 15.4 187.891 15.2446 188.576 15.2446V20.9473C189.476 19.1718 190.689 17.8055 192.216 16.7664C193.751 15.7682 195.385 15.2446 197.283 15.2446C199.123 15.2446 200.765 15.8255 202.135 16.9709C203.447 18.0673 204.132 19.6382 204.132 21.6755C204.132 23.6637 203.554 25.2837 202.391 26.5437C201.235 27.7955 199.758 28.4255 197.91 28.4255C196.119 28.4255 194.7 27.8446 193.585 26.6991C192.48 25.5455 191.902 23.9746 191.902 22.0437C191.902 21.1518 192.009 20.2109 192.216 19.3764C192.108 19.1146 191.952 19.0082 191.745 19.0082C191.423 19.0082 191.002 19.3764 190.532 20.1618C190.004 20.9473 189.74 21.4709 189.69 21.7818C189.476 22.5182 189.319 23.2955 189.212 24.1382C189.154 24.9728 189.104 25.8073 189.104 26.7482V41.8109H192.901V43.1691H173.128V41.8109H175.975V17.3391ZM114.899 29.3091V41.9091H116.747V43.3246H99.6068V41.9091H102.561V3.63458H99.7141V2.2273C101.241 2.2273 104.459 2.01458 109.419 1.5973C111.845 1.44185 113.421 1.28639 114.849 1.28639L114.8 20.3173C116.062 18.8037 117.647 17.2818 119.437 16.2918C121.179 15.4 122.656 15.0318 124.603 15.0318C127.616 15.0318 129.299 15.6618 131.098 17.3882C132.625 18.91 133.153 21.7328 133.153 24.9728L133.202 41.9091H135.893V43.3246H119.124V41.9091H120.964V23.6146C120.964 22.2564 120.865 21.2091 120.7 20.4728C120.494 19.4828 119.388 19.1146 118.596 19.2209C117.803 19.3764 117.118 20.0064 116.434 20.8409C115.22 22.3546 114.899 25.0791 114.899 29.3091Z" fill="#0E0D0D"/>
<path fill-rule="evenodd" clip-rule="evenodd" d="M235.409 31.2482H218.169V33.7028C218.169 36.321 218.483 38.2519 219.168 39.5119C220.059 41.1319 221.644 41.9092 223.963 41.9092C225.869 41.9092 227.66 41.3364 229.401 40.2401C231.085 39.1437 232.512 37.6792 233.725 35.8464L234.724 36.6319C231.613 41.4919 227.132 43.8973 221.272 43.8973C219.325 43.8973 217.691 43.8482 216.478 43.6355C215.265 43.431 213.944 43.0055 212.467 42.3837C210.041 41.2301 208.201 39.7164 206.88 37.7282C205.403 35.4782 204.66 32.7619 204.66 29.4646C204.66 25.0792 206.195 21.5201 209.199 18.8528C212.104 16.2919 215.636 15.0401 219.795 15.0401C224.549 15.0401 228.295 16.5046 231.134 19.3764C233.989 22.3055 235.409 26.2246 235.409 31.2482ZM218.169 29.8901H222.75V20.211C222.75 19.0083 222.651 18.1737 222.386 17.6501C222.015 16.8155 221.33 16.4473 220.381 16.4473C219.432 16.4473 218.854 16.8646 218.59 17.7073C218.269 18.591 218.169 19.6873 218.169 20.9473V29.8901ZM97.4447 34.9628L98.6578 35.6419C97.4447 38.7264 95.4972 40.9192 92.9637 42.3346C90.587 43.6437 87.7976 44.2655 84.4719 44.2655C79.57 44.2655 75.6088 42.9564 72.6049 40.3955C69.601 37.8346 68.0743 34.3328 68.0743 29.8901C68.0743 25.2346 69.8651 21.5773 73.4467 18.9101C76.6651 16.5046 80.519 15.3019 85.0496 15.3019C89.8525 15.3019 93.3845 16.2919 95.654 18.2228C97.552 19.851 98.501 21.9946 98.501 24.6619C98.501 26.5928 97.9729 28.1637 96.8671 29.3092C95.7612 30.4628 94.2841 31.0355 92.4355 31.0355C90.9088 31.0355 89.5307 30.4628 88.4248 29.3664C87.2695 28.2128 86.7413 26.8055 86.7413 25.1773C86.7413 23.6637 87.0549 22.461 87.7976 21.471C88.3753 20.6855 89.3243 19.9001 90.6942 19.221C90.851 19.1719 91.0656 19.0655 91.2719 18.9101C91.437 18.8037 91.536 18.6483 91.536 18.4928C91.536 17.9692 91.1151 17.601 90.3229 17.3392C89.4811 17.0773 88.7962 16.9219 88.1608 16.9219C85.7345 16.9219 84.1583 17.7073 83.4734 19.2701C82.6234 21.2583 82.2025 25.6519 82.2025 32.5573C82.2025 36.2637 82.7884 38.8246 83.9438 40.2401C84.8928 41.3937 86.37 42.0155 88.3258 42.0155C90.4302 42.0155 92.2209 41.3937 93.7559 40.1337C95.2331 38.8819 96.4957 37.1555 97.4447 34.9628Z" fill="#0E0D0D"/>
<path fill-rule="evenodd" clip-rule="evenodd" d="M156.408 27.7955V20.2109C156.408 18.91 156.194 18.0182 155.773 17.4946C155.352 16.9709 154.353 16.7091 153.14 16.7091C152.563 16.7091 152.034 16.7664 151.605 16.8646C151.184 16.9709 150.978 17.1264 150.978 17.3391C150.978 17.4455 151.35 17.9119 151.977 18.6973C152.662 19.4828 152.984 20.3746 152.984 21.4219C152.984 23.14 152.134 24.4491 150.5 25.1773C149.344 25.7582 147.809 26.02 145.862 26.02C144.335 26.02 143.171 25.6028 142.066 24.9728C140.745 24.1382 140.11 22.9846 140.11 21.3646C140.11 19.6382 140.795 18.28 142.222 17.2819C144.335 15.8255 147.974 15.1464 153.297 15.1464C154.667 15.1464 156.301 15.2446 158.257 15.4573C160.155 15.6128 161.731 15.9237 162.944 16.2428C164.9 16.7091 166.319 17.4455 167.277 18.4928C168.275 19.4828 168.746 21.0537 168.746 23.14V38.62C168.746 38.9882 168.803 39.3482 168.911 39.6182C169.067 39.8718 169.703 40.0846 170.017 40.0846C170.33 40.0846 171.601 39.3482 171.758 39.1437L171.857 40.5018C170.858 41.7046 169.645 42.6455 168.168 43.2182C166.691 43.8482 165.106 44.1591 163.472 44.1591C161.789 44.1591 160.419 43.9055 159.412 43.4309C158.257 42.8009 157.308 41.7046 156.623 40.1909C155.352 41.6555 153.767 42.6946 151.869 43.3737C150.235 43.9055 148.395 44.1591 146.233 44.1591C143.906 44.1591 142.008 43.6437 140.531 42.5964C138.798 41.3364 137.898 39.5118 137.898 37.1064C137.898 34.9055 138.476 33.13 139.738 31.6655C141.273 29.89 143.799 28.7855 147.232 28.2618C149.344 27.9509 151.449 27.7955 153.561 27.7955H156.408ZM156.408 34.9628V29.2109H154.246C153.033 29.2109 152.241 29.7346 151.82 30.8309C151.506 31.5591 151.399 32.7128 151.399 34.3328V35.9528C151.399 37.3682 151.449 38.4073 151.605 38.9882C151.869 40.1337 152.505 40.7637 153.404 40.7637C154.667 40.7637 155.674 40.0846 156.095 38.6691C156.301 37.8837 156.408 36.6891 156.408 34.9628ZM51.5612 28.2618V20.6855C51.5612 19.3764 51.3549 18.4846 50.9835 17.9691C50.5626 17.4455 49.7704 17.1837 48.5573 17.1837C47.9219 17.1837 47.4515 17.2328 47.0306 17.3391C46.6097 17.4455 46.3952 17.6009 46.3952 17.8055C46.3952 17.9119 46.7088 18.3864 47.3937 19.1719C48.0291 19.9491 48.4005 20.8409 48.4005 21.8309C48.4005 23.6146 47.5588 24.9237 45.9165 25.6518C44.7612 26.2246 43.1767 26.4864 41.2787 26.4864C39.752 26.4864 38.4316 26.1264 37.3753 25.4964C36.0549 24.7109 35.4277 23.5082 35.4277 21.9373C35.4277 20.1619 36.1126 18.8037 37.5321 17.8055C39.6447 16.3409 43.3335 15.6128 48.7141 15.6128C50.0345 15.6128 51.6685 15.7191 53.616 15.9237C55.5223 16.1364 57.0986 16.3982 58.3117 16.7091C60.2097 17.1837 61.6869 17.9119 62.6359 18.9591C63.585 19.9491 64.0636 21.52 64.0636 23.6146V39.0373C64.0636 39.4055 64.1131 39.7655 64.2699 40.0273C64.3772 40.2973 64.6413 40.3464 64.9549 40.4528C65.7471 40.5591 66.5393 40.1909 67.1748 39.4546V41.0746C66.2257 42.2773 65.0126 43.0628 63.5354 43.6437C62.0583 44.2655 60.4738 44.5764 58.8398 44.5764C57.1563 44.5764 55.7782 44.3228 54.7796 43.8482C53.616 43.2182 52.667 42.1218 51.9821 40.6082C50.7689 42.0728 49.1927 43.1118 47.2369 43.7991C45.6524 44.3228 43.7544 44.5764 41.65 44.5764C39.3311 44.5764 37.433 44.0528 36.0054 43.0137C34.2146 41.7537 33.3151 39.9291 33.3151 37.5237C33.3151 35.38 33.9505 33.5473 35.1636 32.1319C36.7398 30.3564 39.2238 29.2109 42.6486 28.7364C44.7612 28.4255 46.8655 28.2618 48.9782 28.2618H51.5612ZM51.5612 35.4291V29.6282H49.6631C48.45 29.6282 47.6083 30.2009 47.1874 31.2482C46.9233 31.9764 46.7665 33.1791 46.7665 34.7991V36.37C46.7665 37.8346 46.8655 38.8246 46.9728 39.4055C47.2947 40.6082 47.8723 41.1809 48.8214 41.1809C50.0345 41.1809 50.8762 40.5018 51.2476 39.0864C51.4539 38.3582 51.5612 37.1064 51.5612 35.4291Z" fill="#0E0D0D"/>
</svg>
