<svg width="18" height="18" viewBox="0 0 18 18" fill="none" xmlns="http://www.w3.org/2000/svg">
<path fill-rule="evenodd" clip-rule="evenodd" d="M9.30018 0.666504C14.061 0.666504 17.9343 4.53984 17.9343 9.30067C17.9343 14.0615 14.061 17.9348 9.30018 17.9348C4.53935 17.9348 0.666016 14.0615 0.666016 9.30067C0.666016 4.53984 4.53935 0.666504 9.30018 0.666504ZM9.30018 1.9165C5.22852 1.9165 1.91602 5.22984 1.91602 9.30067C1.91602 13.3723 5.22852 16.6848 9.30018 16.6848C13.3718 16.6848 16.6843 13.3723 16.6843 9.30067C16.6843 5.22984 13.3718 1.9165 9.30018 1.9165ZM12.5265 6.07475C12.6907 6.23975 12.7507 6.48225 12.6807 6.70309L11.354 10.9439C11.2932 11.1398 11.139 11.2931 10.944 11.3539L6.70318 12.6814C6.64152 12.7006 6.57818 12.7098 6.51652 12.7098C6.35318 12.7098 6.19318 12.6456 6.07402 12.5273C5.90985 12.3623 5.84985 12.1198 5.91985 11.8989L7.24735 7.65809C7.30818 7.46142 7.46152 7.30892 7.65652 7.24809L11.8973 5.92059C12.1198 5.84975 12.3615 5.91059 12.5265 6.07475ZM11.1315 7.46975L8.34235 8.34309L7.46985 11.1323L10.2582 10.2589L11.1315 7.46975Z" fill="black"/>
</svg>
