<svg width="43" height="49" viewBox="0 0 43 49" fill="none" xmlns="http://www.w3.org/2000/svg">
<path d="M37.5417 11.75H32.9583C32.9583 5.42502 27.825 0.291687 21.5 0.291687C15.175 0.291687 10.0417 5.42502 10.0417 11.75H5.45833C2.9375 11.75 0.897917 13.8125 0.897917 16.3334L0.875 43.8334C0.875 46.3542 2.9375 48.4167 5.45833 48.4167H37.5417C40.0625 48.4167 42.125 46.3542 42.125 43.8334V16.3334C42.125 13.8125 40.0625 11.75 37.5417 11.75ZM21.5 4.87502C25.3042 4.87502 28.375 7.94585 28.375 11.75H14.625C14.625 7.94585 17.6958 4.87502 21.5 4.87502ZM21.5 27.7917C15.175 27.7917 10.0417 22.6584 10.0417 16.3334H14.625C14.625 20.1375 17.6958 23.2084 21.5 23.2084C25.3042 23.2084 28.375 20.1375 28.375 16.3334H32.9583C32.9583 22.6584 27.825 27.7917 21.5 27.7917Z" fill="#95CC49"/>
</svg>
