<svg width="21" height="17" viewBox="0 0 21 17" fill="none" xmlns="http://www.w3.org/2000/svg">
<path fill-rule="evenodd" clip-rule="evenodd" d="M10.503 0.166534C14.8114 0.169659 18.6801 3.18945 20.853 8.2457C20.9384 8.44257 20.9384 8.66549 20.853 8.86237C18.6811 13.9197 14.8114 16.9394 10.503 16.9426H10.4968C6.18844 16.9394 2.31969 13.9197 0.146777 8.86237C0.0624023 8.66549 0.0624023 8.44257 0.146777 8.2457C2.31969 3.18945 6.18948 0.169659 10.4968 0.166534H10.503ZM10.4999 1.72903C6.92073 1.73008 3.65615 4.27487 1.71865 8.55403C3.65615 12.8342 6.91969 15.379 10.4999 15.3801C14.0801 15.379 17.3436 12.8342 19.2811 8.55403C17.3436 4.27487 14.0801 1.73008 10.4999 1.72903ZM10.4996 4.47987C12.7465 4.47987 14.5746 6.30799 14.5746 8.55487C14.5746 10.8007 12.7465 12.6278 10.4996 12.6278C8.25271 12.6278 6.42563 10.8007 6.42563 8.55487C6.42563 6.30799 8.25271 4.47987 10.4996 4.47987ZM10.4996 6.04237C9.11417 6.04237 7.98813 7.16945 7.98813 8.55487C7.98813 9.93924 9.11417 11.0653 10.4996 11.0653C11.885 11.0653 13.0121 9.93924 13.0121 8.55487C13.0121 7.16945 11.885 6.04237 10.4996 6.04237Z" fill="black"/>
</svg>
