<svg width="16" height="13" viewBox="0 0 16 13" fill="none" xmlns="http://www.w3.org/2000/svg">
<path d="M1.7 8.46669L7.16667 6.03336V4.83336C7.16667 4.37503 7.54167 4.00003 8 4.00003C8.45833 4.00003 8.83333 3.62503 8.83333 3.16669C8.83333 2.70836 8.45833 2.33336 8 2.33336C7.54167 2.33336 7.16667 2.70836 7.16667 3.16669H5.5C5.5 1.63336 6.88333 0.416694 8.46667 0.708361C9.45 0.891694 10.2583 1.68336 10.45 2.66669C10.7 3.96669 9.95 5.11669 8.83333 5.51669V6.04169L14.3 8.47503C15.0333 8.79169 15.5 9.51669 15.5 10.3084V10.3167C15.5 11.4334 14.6 12.3334 13.4833 12.3334H12.1667H3.83333H2.51667C1.4 12.3334 0.5 11.4334 0.5 10.3167V10.3084C0.5 9.51669 0.966667 8.79169 1.7 8.46669ZM2.51667 10.6667H3.83333L11.75 10.6667L12.1667 10.6667H13.4833C13.675 10.6667 13.8333 10.5084 13.8333 10.3084C13.8333 10.1667 13.75 10.0417 13.625 9.99169L8 7.49169L2.375 9.99169C2.25 10.05 2.16667 10.175 2.16667 10.3167C2.16667 10.5084 2.325 10.6667 2.51667 10.6667Z" fill="#9A9A9A"/>
</svg>
