<svg width="30" height="30" viewBox="0 0 30 30" fill="none" xmlns="http://www.w3.org/2000/svg">
<circle cx="15" cy="15" r="15" fill="#95CC49"/>
<path d="M14.662 22.261C15.454 22.261 16.153 22.087 16.759 21.739C17.365 21.391 17.839 20.902 18.181 20.272C18.529 19.642 18.703 18.91 18.703 18.076C18.703 17.224 18.523 16.48 18.163 15.844C17.803 15.208 17.305 14.725 16.669 14.395C16.039 14.059 15.313 13.918 14.491 13.972L18.577 10.066V9.04H11.242V10.057H17.164L12.502 14.467L13.06 15.295C13.294 15.181 13.549 15.091 13.825 15.025C14.107 14.953 14.371 14.917 14.617 14.917C15.523 14.917 16.249 15.202 16.795 15.772C17.341 16.342 17.614 17.11 17.614 18.076C17.614 19.024 17.356 19.786 16.84 20.362C16.324 20.932 15.595 21.229 14.653 21.253C13.981 21.265 13.381 21.1 12.853 20.758C12.325 20.41 11.941 19.891 11.701 19.201L10.72 19.516C10.99 20.374 11.476 21.046 12.178 21.532C12.88 22.018 13.708 22.261 14.662 22.261Z" fill="white"/>
</svg>
