<svg width="21" height="13" viewBox="0 0 21 13" fill="none" xmlns="http://www.w3.org/2000/svg">
<path d="M10.5 0.208496C6.125 0.208496 2.38875 2.80016 0.875 6.4585C2.38875 10.1168 6.125 12.7085 10.5 12.7085C14.875 12.7085 18.6112 10.1168 20.125 6.4585C18.6112 2.80016 14.875 0.208496 10.5 0.208496ZM10.5 10.6252C8.085 10.6252 6.125 8.7585 6.125 6.4585C6.125 4.1585 8.085 2.29183 10.5 2.29183C12.915 2.29183 14.875 4.1585 14.875 6.4585C14.875 8.7585 12.915 10.6252 10.5 10.6252ZM10.5 3.9585C9.0475 3.9585 7.875 5.07516 7.875 6.4585C7.875 7.84183 9.0475 8.9585 10.5 8.9585C11.9525 8.9585 13.125 7.84183 13.125 6.4585C13.125 5.07516 11.9525 3.9585 10.5 3.9585Z" fill="#130F26"/>
</svg>
