<svg width="16" height="15" viewBox="0 0 16 15" fill="none" xmlns="http://www.w3.org/2000/svg">
<path fill-rule="evenodd" clip-rule="evenodd" d="M14.5631 13.3297C14.8736 13.3297 15.1256 13.5817 15.1256 13.8922C15.1256 14.2027 14.8736 14.4547 14.5631 14.4547H9.12335C8.81285 14.4547 8.56085 14.2027 8.56085 13.8922C8.56085 13.5817 8.81285 13.3297 9.12335 13.3297H14.5631ZM11.0875 0.740232C11.1249 0.769482 12.3797 1.74448 12.3797 1.74448C12.8357 2.01598 13.1919 2.50123 13.327 3.07573C13.4612 3.64423 13.3637 4.23073 13.0509 4.72648C13.0489 4.72979 13.0468 4.73305 13.0395 4.74277L13.0339 4.75028C12.9831 4.81719 12.7625 5.09623 11.6487 6.49167C11.6383 6.50996 11.6266 6.52709 11.6138 6.54373C11.595 6.56827 11.5746 6.59082 11.5528 6.61135C11.4768 6.707 11.3965 6.80751 11.3122 6.91318L11.1412 7.12728C10.7885 7.56901 10.3701 8.09281 9.87379 8.7141L9.61906 9.03293C8.6608 10.2323 7.43357 11.7679 5.86145 13.7347C5.5172 14.1637 5.0012 14.4135 4.44695 14.4202L1.7177 14.4547H1.7102C1.44995 14.4547 1.22345 14.2762 1.1627 14.022L0.54845 11.4187C0.4217 10.8795 0.5477 10.323 0.89345 9.89098L7.95845 1.05448C7.96145 1.05148 7.9637 1.04773 7.9667 1.04473C8.74145 0.118482 10.1424 -0.018018 11.0875 0.740232ZM7.17074 3.84025L1.7717 10.5937C1.64345 10.7542 1.5962 10.9612 1.64345 11.16L2.1542 13.3237L4.43345 13.2952C4.6502 13.293 4.85045 13.1962 4.9832 13.0312C5.66681 12.1759 6.52599 11.1009 7.40934 9.99551L7.72187 9.60442L8.03492 9.21266C8.86336 8.17592 9.68179 7.15155 10.3666 6.29415L7.17074 3.84025ZM8.83295 1.76248L7.87349 2.96125L11.0691 5.41445C11.6842 4.64402 12.0888 4.1366 12.1262 4.08823C12.2492 3.88873 12.2972 3.60673 12.2327 3.33523C12.1667 3.05698 11.9934 2.82073 11.7437 2.66998C11.6904 2.63323 10.4267 1.65223 10.3877 1.62148C9.9122 1.24048 9.21845 1.30648 8.83295 1.76248Z" fill="black"/>
</svg>