<svg width="17" height="22" viewBox="0 0 17 22" fill="none" xmlns="http://www.w3.org/2000/svg">
<path d="M15.2897 8.12454L9.53974 17.8455C8.43474 19.7136 5.98956 20.3531 4.07564 19.2745C2.16172 18.196 1.50654 15.8093 2.61154 13.9412L8.86154 3.37497C9.55154 2.20845 11.0815 1.80832 12.2766 2.4818C13.4717 3.15529 13.8817 4.64862 13.1917 5.81514L7.94167 14.6908C7.66667 15.1557 7.05195 15.3165 6.57564 15.048C6.09933 14.7796 5.93461 14.1796 6.20961 13.7147L10.9596 5.68437L9.66058 4.95232L4.91058 12.9827C4.22058 14.1492 4.63052 15.6425 5.82564 16.316C7.02075 16.9895 8.5507 16.5893 9.2407 15.4228L14.4907 6.54719C15.5957 4.67908 14.9405 2.29241 13.0266 1.21385C11.1127 0.135299 8.6675 0.774805 7.5625 2.64292L1.3125 13.2092C-0.2075 15.7789 0.692923 19.0589 3.32564 20.5425C5.95836 22.0261 9.31878 21.1472 10.8388 18.5775L16.5888 8.85659L15.2897 8.12454Z" fill="#323232"/>
</svg>
