<svg width="137" height="70" viewBox="0 0 137 70" fill="none" xmlns="http://www.w3.org/2000/svg">
<path d="M0.804688 0.695312V70H13.1797V7.30469H13.2734L26.3281 70H35.75L48.8047 7.21094H48.8984V70H61.2734V0.695312H40.25L31.0391 45.7188L21.8281 0.695312H0.804688ZM84.5469 38.7109V60.1094H92.1406C94.6875 60.1094 96.6016 59.2656 97.8828 57.5781C99.1797 55.875 99.8281 53.1328 99.8281 49.3516C99.8281 45.9609 99.1328 43.3438 97.7422 41.5C96.3672 39.6406 94.4375 38.7109 91.9531 38.7109H84.5469ZM71.3984 0.695312H84.5469V28.2344H95.5859C98.2109 28.2344 100.617 28.7812 102.805 29.875C104.992 30.9531 106.859 32.4219 108.406 34.2812C109.953 36.125 111.148 38.2266 111.992 40.5859C112.836 42.9297 113.258 45.3438 113.258 47.8281C113.258 54.6094 111.797 60 108.875 64C105.969 68 101.922 70 96.7344 70H71.3984V0.695312ZM123.242 70V0.695312H136.391V70H123.242Z" fill="#F5F5F5"/>
</svg>
