<svg width="42" height="34" viewBox="0 0 42 34" fill="none" xmlns="http://www.w3.org/2000/svg">
<path d="M15.8387 17.3961V34H0V15.4315C0 13.1923 0.623656 10.8792 1.87097 8.49208C3.11828 6.08388 4.87097 4.06648 7.12903 2.43989C9.4086 0.813296 11.9677 0 14.8065 0V6.46412C9.43011 6.46412 6.74194 10.1081 6.74194 17.3961H15.8387ZM42 17.3961V34H26.1613V15.4315C26.1613 13.1923 26.7849 10.8792 28.0323 8.49208C29.2796 6.08388 31.0323 4.06648 33.2903 2.43989C35.5699 0.813296 38.129 0 40.9677 0V6.46412C35.5914 6.46412 32.9032 10.1081 32.9032 17.3961H42Z" fill="#333333"/>
</svg>
